<svg version="1.1" id="Layer_1" xmlns="http://www.w3.org/2000/svg" xmlns:xlink="http://www.w3.org/1999/xlink" x="0px" y="0px"
	 width="100%" viewBox="0 0 800 800" enable-background="new 0 0 800 800" xml:space="preserve">
<path fill="#000000" opacity="1.000000" stroke="none" 
	d="
M652.768005,341.004089 
	C657.709045,342.157898 662.212769,343.388397 666.790405,344.203583 
	C669.903381,344.757935 671.294800,346.344055 671.818298,349.369446 
	C674.034241,362.176300 675.262878,358.941559 665.932983,365.587646 
	C652.101929,375.440216 638.172729,385.154999 624.332520,394.994781 
	C622.913391,396.003723 621.006165,396.584229 620.120483,399.104889 
	C624.865967,399.637238 629.402710,400.222229 633.954773,400.640350 
	C642.400024,401.416168 650.849976,402.150238 659.306763,402.785522 
	C662.607971,403.033508 664.364014,404.299255 663.466248,407.834839 
	C662.551575,411.437134 665.500000,416.677490 658.768188,417.943695 
	C661.360229,423.955200 663.229126,429.834534 661.516479,436.386414 
	C658.864014,446.533844 651.671143,452.564087 641.269043,451.985596 
	C632.143372,451.478058 623.064026,450.182098 613.948059,449.430603 
	C611.084351,449.194519 610.324036,448.042450 610.536316,445.304077 
	C611.482544,433.095734 609.706787,434.108185 622.501587,435.095093 
	C627.803955,435.504089 633.080017,436.325470 638.386475,436.589813 
	C645.209290,436.929657 648.749451,433.882782 649.314087,427.707947 
	C649.811829,422.265900 646.088867,417.391418 640.131531,416.527893 
	C633.222595,415.526459 626.250732,414.719513 619.282227,414.451874 
	C614.473633,414.267181 613.120422,412.172546 613.804199,407.886627 
	C614.925354,400.859253 616.296326,393.887970 613.937927,386.768616 
	C613.008301,383.962402 615.628174,382.472931 617.682495,381.586609 
	C624.607727,378.598785 626.102417,373.841339 623.803223,366.870026 
	C622.253296,362.170563 621.615173,357.145935 620.844421,352.223633 
	C620.419312,349.509216 619.061218,348.168396 616.519165,347.474487 
	C604.226440,344.118927 604.072327,343.884033 603.362732,329.833405 
	C619.868958,333.562653 636.115540,337.233246 652.768005,341.004089 
M650.364075,359.879730 
	C651.885376,358.665131 653.848572,357.972992 654.882446,356.140228 
	C650.623413,354.028076 637.643005,351.526825 633.378601,352.160675 
	C634.158875,357.461761 634.995056,362.725189 636.786255,368.512360 
	C641.446106,365.556976 645.608154,362.917358 650.364075,359.879730 
z"/>
<path fill="#000000" opacity="1.000000" stroke="none" 
	d="
M504.113770,191.921860 
	C495.802979,205.084900 483.049316,210.443100 467.779938,206.748489 
	C458.260956,204.445251 448.975098,201.192062 439.531158,198.556732 
	C436.641357,197.750336 436.339081,196.219803 437.075134,193.749969 
	C442.392334,175.909027 447.696075,158.063919 452.939117,140.201080 
	C453.833588,137.153641 455.373779,136.380035 458.466980,137.362320 
	C467.179260,140.129013 476.066650,142.361221 484.722534,145.285172 
	C505.787628,152.400925 513.742004,171.464676 504.113770,191.921860 
M463.636475,159.141769 
	C461.064758,167.903168 458.522125,176.673279 455.900146,185.419601 
	C455.273468,187.509979 454.844086,189.510101 457.505768,190.286026 
	C462.906647,191.860458 468.164978,194.026382 473.955841,194.012054 
	C483.312103,193.988907 489.249054,189.342484 491.812683,179.822342 
	C494.193726,170.980255 491.148224,163.582397 483.307281,159.054077 
	C479.365387,156.777557 474.848907,156.115143 470.700531,154.465332 
	C466.462982,152.780014 464.525635,154.258011 463.636475,159.141769 
z"/>
<path fill="#000000" opacity="1.000000" stroke="none" 
	d="
M399.434265,622.279175 
	C396.546906,639.417236 393.694611,656.115662 390.898651,672.823547 
	C390.374146,675.957825 389.291107,677.373535 385.602386,676.601318 
	C375.847229,674.559021 365.851929,673.541504 356.216217,671.081848 
	C343.931824,667.945984 334.874573,660.286377 332.264587,647.509460 
	C329.793091,635.410461 332.747162,624.246521 342.578735,615.885498 
	C350.915039,608.796143 360.873108,607.615356 371.287354,609.119324 
	C378.684937,610.187622 386.032928,611.596375 393.408966,612.817444 
	C400.861725,614.051331 401.046906,614.302002 399.434265,622.279175 
M353.089081,626.554260 
	C347.395325,632.543396 345.878632,639.693848 348.288208,647.355713 
	C350.704285,655.038330 357.004791,658.310242 364.511505,659.641052 
	C367.458374,660.163574 370.433563,660.560974 373.345978,661.231873 
	C375.659363,661.764771 376.961121,660.904785 377.344849,658.744812 
	C379.176910,648.433289 380.954956,638.111938 382.693390,627.784241 
	C382.951355,626.251770 382.794556,624.570862 380.888580,624.182678 
	C371.639526,622.299194 362.281158,619.226807 353.089081,626.554260 
z"/>
<path fill="#000000" opacity="1.000000" stroke="none" 
	d="
M145.916016,482.578247 
	C145.803192,480.798523 145.715668,479.467499 145.707550,478.136017 
	C145.657990,470.008209 148.753967,467.819366 156.600952,470.186829 
	C159.224350,470.978302 159.262039,472.800812 159.115128,474.872345 
	C158.770889,479.725830 158.933472,484.526001 160.565338,489.175110 
	C161.285446,491.226624 162.122406,493.233368 163.620209,494.857666 
	C165.387054,496.773712 167.447586,498.343781 170.192307,497.352600 
	C172.894165,496.376923 173.803909,494.008240 173.680954,491.311554 
	C173.393143,484.999084 172.810867,478.694550 172.702301,472.380707 
	C172.530716,462.402283 175.961365,456.888092 183.580582,454.179596 
	C191.345413,451.419281 199.764374,454.032654 205.252106,461.257874 
	C213.119400,471.616089 215.365280,483.542786 214.112991,496.208649 
	C213.541641,501.987427 209.025650,500.119415 205.594620,499.906677 
	C202.128845,499.691742 200.210480,498.587036 201.129562,494.269806 
	C202.744980,486.681732 201.079163,479.360962 197.454330,472.569275 
	C195.990768,469.827087 193.762909,467.488586 190.242004,468.516022 
	C186.958710,469.474091 186.380768,472.555939 186.448898,475.415192 
	C186.603287,481.894409 187.150070,488.363129 187.403030,494.841370 
	C187.687592,502.129150 185.093689,507.918610 178.153427,511.075043 
	C170.692719,514.468140 163.786575,513.295227 157.795288,507.810699 
	C150.552887,501.180939 147.723312,492.335938 145.916016,482.578247 
z"/>
<path fill="#000000" opacity="1.000000" stroke="none" 
	d="
M604.942017,546.903076 
	C609.299194,548.590637 613.645508,549.184753 617.877991,551.616760 
	C615.708130,555.826782 612.207336,558.697266 609.271667,561.940063 
	C607.875916,563.481873 605.825562,562.238464 604.109314,561.673401 
	C595.150024,558.723572 586.190979,555.773254 575.901550,552.385071 
	C579.220581,559.108582 581.970398,564.685730 584.727112,570.259460 
	C585.538147,571.899292 586.374390,573.526550 587.188660,575.164795 
	C591.587524,584.014893 590.742554,586.784180 581.811462,592.734985 
	C580.160400,592.227539 579.800903,590.653137 579.165466,589.357849 
	C571.547546,573.829529 564.119324,558.205688 556.314148,542.772400 
	C548.425171,527.173462 556.567322,517.165100 565.343872,512.186584 
	C567.624756,510.892761 570.898438,508.584167 572.206360,512.992737 
	C573.140991,516.143311 578.661194,520.053650 571.475647,523.023865 
	C568.305664,524.334229 566.201660,526.984558 566.333923,530.864258 
	C566.477356,535.070984 569.696777,535.696594 572.724792,536.655396 
	C583.342468,540.017334 593.952209,543.404480 604.942017,546.903076 
z"/>
<path fill="#000000" opacity="1.000000" stroke="none" 
	d="
M190.293579,332.159241 
	C188.357239,339.390594 186.012085,346.112366 184.911865,353.271301 
	C193.251938,352.786163 198.377289,344.323883 196.303101,335.006042 
	C195.736023,332.458557 194.974060,330.471832 198.101624,328.758789 
	C205.507812,324.702209 206.713440,325.088501 208.702454,333.338959 
	C211.208298,343.733337 205.274582,358.454224 196.111572,364.575470 
	C187.584976,370.271606 176.101608,369.738098 167.046982,363.225098 
	C157.351852,356.251404 154.434769,342.179901 160.227966,330.331390 
	C165.662476,319.216431 177.390182,313.898163 189.063324,317.139801 
	C192.588470,318.118744 194.228394,319.775635 192.745056,323.618500 
	C191.730652,326.246552 191.152008,329.042786 190.293579,332.159241 
M172.659897,333.175293 
	C167.167557,340.598419 168.016418,347.465027 175.247635,350.496735 
	C177.400162,344.038513 179.701675,337.692688 180.540741,330.954407 
	C177.218262,329.739624 175.176193,331.093201 172.659897,333.175293 
z"/>
<path fill="#000000" opacity="1.000000" stroke="none" 
	d="
M631.155212,465.327942 
	C633.478210,471.466492 631.479370,476.860504 629.802795,482.256775 
	C628.825500,485.402496 627.661987,488.490356 626.498413,491.845856 
	C631.013123,493.781616 633.832214,492.019501 636.000366,488.675415 
	C638.754883,484.427094 639.355164,479.623840 638.805664,474.748962 
	C638.305176,470.308868 640.941650,469.929901 644.235291,469.648254 
	C647.531738,469.366425 650.772217,468.768433 651.056946,473.539764 
	C651.718872,484.628967 649.242981,494.846466 641.373108,502.969543 
	C635.851257,508.669006 628.741516,509.286621 621.427368,506.775696 
	C613.246460,503.967224 605.148560,500.917938 596.992981,498.034271 
	C594.286072,497.077179 593.117249,495.558533 594.599731,492.782532 
	C596.415344,489.382782 595.796692,484.250793 601.499451,483.377472 
	C599.620483,476.352631 601.287292,469.904694 605.166077,463.988190 
	C612.008118,453.551849 624.930237,454.063629 631.155212,465.327942 
M610.599548,483.599945 
	C611.594238,486.264252 613.290588,488.621124 616.249451,488.368561 
	C619.094177,488.125732 618.780090,484.872314 619.695129,482.883850 
	C620.450500,481.242371 620.925842,479.453156 621.365662,477.689636 
	C622.064575,474.887115 621.054626,472.696167 618.390869,471.638641 
	C615.900146,470.649811 613.870178,471.694794 612.388916,473.833221 
	C610.500488,476.559662 609.971497,479.590179 610.599548,483.599945 
z"/>
<path fill="#000000" opacity="1.000000" stroke="none" 
	d="
M330.440125,600.812866 
	C334.338379,607.111755 333.862915,612.943481 329.423737,618.205872 
	C325.201263,623.211304 319.610779,623.972229 313.503510,622.279236 
	C307.726288,620.677795 302.570587,617.530273 296.681458,615.245667 
	C294.085785,619.468445 295.900787,622.417725 298.840790,624.844604 
	C302.865021,628.166382 307.778168,629.349060 312.855591,629.211426 
	C318.205811,629.066528 316.927643,632.848511 317.170685,635.759583 
	C317.427795,638.838989 317.125763,641.417419 312.899292,641.327087 
	C302.679138,641.108643 293.597107,638.005676 286.126740,630.927368 
	C280.311096,625.416931 279.157013,618.526855 281.669037,611.189514 
	C284.856018,601.880859 289.889069,593.383179 294.117310,584.532043 
	C294.697845,583.316833 295.520081,581.928406 297.120819,582.583069 
	C300.345703,583.902222 303.503021,585.403503 306.615845,586.973145 
	C308.426239,587.886108 306.940735,589.715942 307.442841,591.089111 
	C316.784576,590.008911 324.343781,593.241577 330.440125,600.812866 
M306.208984,609.373230 
	C308.491821,610.359985 310.699799,611.620972 313.275177,611.650818 
	C316.710571,611.690735 319.344543,608.694275 318.109406,605.847229 
	C316.311584,601.703186 312.639038,600.243286 308.367401,600.212036 
	C304.431244,600.183289 301.727448,601.875793 300.917419,605.864807 
	C302.145172,607.689697 303.992279,608.155579 306.208984,609.373230 
z"/>
<path fill="#000000" opacity="1.000000" stroke="none" 
	d="
M204.399048,549.741821 
	C205.958344,545.504028 208.554871,542.489014 211.623688,539.867737 
	C217.825562,534.570312 224.150421,529.414795 230.281250,524.037354 
	C232.559753,522.038818 234.197540,522.004639 235.992355,524.477600 
	C237.162567,526.089905 238.447525,527.650330 239.870377,529.040222 
	C241.829651,530.954224 242.370956,532.863586 240.107864,535.023376 
	C249.892685,538.085754 255.695282,544.347107 257.521301,554.026733 
	C258.545593,559.456360 256.324524,563.853210 252.100952,567.142944 
	C247.831024,570.468811 243.112442,571.209961 238.043793,568.844116 
	C233.378876,566.666687 229.954865,563.078308 226.711792,559.241211 
	C224.813049,556.994690 222.849854,554.802673 220.848999,552.509705 
	C217.425262,555.133911 216.922363,557.964905 218.368591,561.223999 
	C220.719162,566.520996 224.764496,570.192200 230.076126,572.220154 
	C235.517792,574.297668 231.714355,577.305542 231.001617,579.818237 
	C230.290466,582.325317 229.407089,585.175110 225.511917,583.391052 
	C215.171783,578.654968 207.723358,571.233093 203.959579,560.402832 
	C202.778854,557.005310 203.119492,553.508057 204.399048,549.741821 
M237.428360,556.222961 
	C241.922836,556.847412 244.553177,555.155334 244.353500,551.768127 
	C244.034332,546.353699 236.380524,541.442322 231.312347,543.450562 
	C228.536774,544.550293 227.751175,546.327576 229.898483,548.760193 
	C232.083878,551.235962 234.008224,553.971741 237.428360,556.222961 
z"/>
<path fill="#000000" opacity="1.000000" stroke="none" 
	d="
M599.507202,253.533249 
	C603.247314,246.804184 603.805542,246.645752 609.627380,250.899261 
	C616.388977,255.839279 621.388000,262.173279 624.098083,270.136047 
	C626.961731,278.550140 624.905518,286.232422 617.773682,291.470398 
	C610.139954,297.077087 602.065674,302.081970 594.225098,307.410400 
	C592.097168,308.856506 590.315369,308.617554 589.344727,306.324066 
	C587.813049,302.705292 582.599609,300.295898 585.616455,294.999115 
	C578.209595,291.338104 573.251648,285.632019 571.476807,277.432556 
	C570.095520,271.050751 572.511414,265.282013 577.875549,261.963013 
	C583.253662,258.635406 588.813538,258.989441 594.131958,262.985260 
	C598.497986,266.265625 601.146606,270.931458 604.149292,275.319275 
	C605.161804,276.798828 605.828003,278.607788 607.851624,279.532410 
	C611.150574,277.837585 611.885864,275.110138 610.926086,271.704285 
	C609.391418,266.258331 605.783020,262.418365 601.029602,259.692505 
	C598.349609,258.155670 597.202026,256.593872 599.507202,253.533249 
M592.857788,275.599854 
	C588.274292,272.485168 584.734131,273.258789 584.334595,277.593048 
	C583.938477,281.889282 586.327271,284.997314 589.812988,286.904144 
	C593.013794,288.655121 596.439453,288.700775 599.209534,285.434326 
	C597.833801,281.838440 595.536377,279.011475 592.857788,275.599854 
z"/>
<path fill="#000000" opacity="1.000000" stroke="none" 
	d="
M554.566589,198.819885 
	C557.215271,205.011536 556.401611,210.657562 553.260986,215.896973 
	C548.560791,223.738190 543.544800,231.389465 538.733521,239.165115 
	C537.266785,241.535507 535.440857,242.004059 533.402344,240.252182 
	C530.382385,237.656891 524.908081,237.298645 525.455444,231.399033 
	C517.935425,231.600937 512.100586,228.382782 507.223969,223.228897 
	C502.071594,217.783585 501.178467,210.684738 504.761902,204.918396 
	C508.464966,198.959625 514.673828,197.039841 522.246094,199.379517 
	C526.774231,200.778625 530.538757,203.561600 534.570618,205.867630 
	C536.129761,206.759384 537.457458,208.176590 539.746948,208.050980 
	C541.871826,204.634811 541.139648,201.543350 538.327759,198.850311 
	C534.597412,195.277557 530.108215,193.340500 524.922424,192.937012 
	C518.649719,192.448975 522.032043,187.882477 521.742126,184.972824 
	C521.423157,181.771881 523.179993,180.250168 526.309448,180.813156 
	C538.022705,182.920471 548.233704,187.488953 554.566589,198.819885 
M533.927429,217.013916 
	C531.097656,214.135452 527.562073,212.340027 523.949768,210.737198 
	C522.074158,209.904984 520.058960,209.886276 518.444641,211.549240 
	C516.864990,213.176422 516.702820,215.202744 517.608704,217.063324 
	C519.368896,220.678284 522.794189,222.184662 526.489319,222.496674 
	C529.982910,222.791687 533.009216,221.513687 533.927429,217.013916 
z"/>
<path fill="#000000" opacity="1.000000" stroke="none" 
	d="
M239.365265,279.475311 
	C232.775070,290.742950 232.781006,290.733032 221.677063,284.082458 
	C217.824707,281.775116 213.979889,279.448975 210.051682,277.275970 
	C204.143295,274.007599 199.571075,274.848999 196.539871,279.600830 
	C193.192810,284.847809 193.892822,290.400238 199.187866,294.070740 
	C205.186829,298.229218 211.548248,301.902679 217.949997,305.427521 
	C221.542923,307.405853 222.235092,309.273621 219.915085,312.814087 
	C213.936951,321.937164 216.463959,322.259277 206.494827,316.323151 
	C197.634796,311.047455 188.725449,305.854584 179.857117,300.592712 
	C171.014191,295.345917 171.788498,296.938202 176.871155,288.178558 
	C178.225372,285.844635 179.328857,282.996246 183.281982,285.522034 
	C183.365829,279.334808 184.292603,273.889404 187.467545,268.967133 
	C193.173401,260.121063 202.756851,256.794983 212.110153,261.493713 
	C220.861801,265.890228 229.189728,271.131897 237.685577,276.033783 
	C238.831039,276.694672 240.042847,277.442413 239.365265,279.475311 
z"/>
<path fill="#000000" opacity="1.000000" stroke="none" 
	d="
M295.101929,173.802582 
	C303.107544,172.086044 303.663635,172.594650 304.208801,180.383896 
	C304.430176,183.546616 303.316193,185.038513 300.143524,185.233444 
	C295.901855,185.494064 292.040588,187.028610 288.478119,189.275833 
	C286.357513,190.613556 283.610657,192.280685 284.786316,195.031311 
	C286.171478,198.272141 289.321167,196.736481 291.808990,196.040024 
	C295.970459,194.874985 300.070679,193.484894 304.248230,192.385376 
	C309.322632,191.049805 313.996399,192.085342 317.357666,196.190552 
	C320.924927,200.547348 322.263062,205.502396 319.791107,211.068726 
	C315.641052,220.413727 298.098175,230.508804 287.901245,229.328384 
	C282.774048,228.734863 285.146210,224.467331 284.315430,221.874466 
	C283.558533,219.512466 284.519836,217.878281 287.519257,217.578918 
	C293.366272,216.995331 298.941833,215.327438 303.863220,211.954117 
	C305.687469,210.703690 307.641327,209.182663 306.355255,206.685028 
	C305.186401,204.414993 302.887024,205.139160 300.993164,205.701202 
	C296.849457,206.930969 292.794739,208.475754 288.624573,209.597855 
	C281.668640,211.469543 276.569611,209.818390 273.078003,204.868439 
	C269.269470,199.469299 269.329681,192.900894 273.523987,187.193619 
	C278.806488,180.005646 286.455841,176.443588 295.101929,173.802582 
z"/>
<path fill="#000000" opacity="1.000000" stroke="none" 
	d="
M538.461304,587.540527 
	C543.133972,585.255493 547.286011,582.770081 551.980835,581.454956 
	C556.908813,580.074341 561.315918,580.951782 564.761353,584.760742 
	C568.256531,588.624817 570.120239,593.063965 568.547546,598.483521 
	C565.818481,607.887878 552.388855,619.192017 542.528320,620.319885 
	C540.374390,620.566284 539.237427,620.038513 538.536377,617.767151 
	C536.531189,611.271057 537.103271,609.920532 543.510925,607.487183 
	C547.285217,606.053772 550.782532,604.094849 553.418640,600.978699 
	C554.635315,599.540466 556.415833,597.900696 554.744141,595.737671 
	C553.289856,593.855896 551.373657,594.740906 549.721497,595.455872 
	C545.602051,597.238281 541.602173,599.305786 537.446289,600.992920 
	C530.273682,603.904602 524.956116,602.977173 521.014160,598.401917 
	C516.813965,593.526978 516.154053,586.956726 519.933716,580.763000 
	C525.998474,570.824341 535.459778,565.575500 546.446045,562.723450 
	C548.774414,562.119019 550.059753,562.945862 550.821167,565.378357 
	C553.103577,572.670593 552.921204,573.192871 545.857361,575.397644 
	C541.690247,576.698303 537.774780,578.524841 534.489380,581.445557 
	C532.657043,583.074463 530.085754,584.934326 531.809570,587.657043 
	C533.424683,590.208008 535.974121,588.444946 538.461304,587.540527 
z"/>
<path fill="#000000" opacity="1.000000" stroke="none" 
	d="
M188.132721,400.927338 
	C199.581253,406.409576 202.808548,422.963623 198.691162,434.026215 
	C194.212280,446.060120 182.752701,452.431488 169.893936,450.150116 
	C159.424866,448.292725 150.625320,437.923492 149.714066,426.270325 
	C149.126846,418.761169 149.882690,411.593811 155.504944,405.828247 
	C159.336273,401.899200 160.259094,402.030762 163.474640,406.410797 
	C166.134918,410.034454 168.201569,412.947662 163.927673,417.444916 
	C159.993011,421.585144 162.055069,429.555786 166.762848,432.983032 
	C172.016006,436.807312 180.896347,435.882935 185.016434,431.082916 
	C188.976913,426.468842 188.642670,419.116882 184.273666,414.745117 
	C180.769424,411.238647 181.336563,403.873138 185.451370,400.838257 
	C185.970322,400.455505 187.013382,400.783356 188.132721,400.927338 
z"/>
<path fill="#000000" opacity="1.000000" stroke="none" 
	d="
M254.333130,593.839600 
	C258.050598,589.395203 261.620697,585.209717 264.889648,580.800903 
	C268.100494,576.470581 267.381165,573.683350 262.790680,571.014221 
	C259.164673,568.905884 258.970123,566.396484 261.665680,561.096069 
	C263.483246,557.522156 265.869141,559.500793 268.010437,560.310852 
	C269.860291,561.010742 271.628845,562.034607 273.272980,563.151367 
	C282.870850,569.670532 284.614288,579.719910 277.714935,589.011230 
	C273.965942,594.060059 270.036102,598.974670 265.773804,604.485107 
	C271.832489,607.504517 270.906586,610.894836 267.252960,614.740723 
	C264.518341,617.619263 264.696442,617.788452 258.374237,614.761536 
	C257.925446,615.111511 257.351227,615.452576 256.910156,615.919434 
	C250.356216,622.856262 250.354874,622.866821 242.932236,616.735474 
	C241.922791,615.901611 241.000748,614.962036 240.049118,614.081421 
	C240.194122,613.416748 240.182205,612.880066 240.416687,612.492432 
	C241.957733,609.945251 245.208725,608.037964 245.207092,605.097046 
	C245.205292,601.885376 241.351685,600.897705 239.229340,598.899536 
	C237.689697,597.449951 237.639023,596.154419 238.933701,594.590271 
	C240.101593,593.179321 241.222031,591.725952 242.303772,590.247620 
	C243.729523,588.299255 245.153305,588.603760 246.983337,589.818726 
	C249.258087,591.328979 250.782501,594.174866 254.333130,593.839600 
z"/>
<path fill="#000000" opacity="1.000000" stroke="none" 
	d="
M235.971970,229.829010 
	C230.757904,235.301743 230.746597,235.313721 236.006042,240.280228 
	C238.906738,243.019333 241.717880,245.877228 244.812958,248.380463 
	C248.650589,251.484253 251.501404,251.173691 253.802200,246.814758 
	C256.901886,240.942261 260.272614,245.085724 263.328217,246.209167 
	C267.163696,247.619354 265.404053,250.492996 264.211609,252.820419 
	C257.283386,266.343109 244.766479,268.764313 233.672287,258.737396 
	C229.371552,254.850403 225.171249,250.852310 220.416855,246.432251 
	C216.994858,251.528854 213.946198,251.041687 209.840851,246.967407 
	C205.715485,242.873245 209.713928,240.970291 211.076813,238.413467 
	C209.460800,234.764603 204.369476,233.609299 204.457962,229.836044 
	C204.528122,226.844254 208.181702,224.989304 210.261322,222.660980 
	C216.660980,215.496048 217.567917,226.554169 222.002823,226.161285 
	C224.111511,225.905411 224.995712,223.903763 226.498245,222.677841 
	C227.945374,221.497086 228.857086,218.633942 231.146881,219.776962 
	C233.921310,221.161942 236.492325,223.254150 237.873581,226.204529 
	C238.538467,227.624725 237.000793,228.542389 235.971970,229.829010 
z"/>
<path fill="#000000" opacity="1.000000" stroke="none" 
	d="
M564.406860,251.205185 
	C564.397644,254.059784 565.957825,255.649567 567.921326,256.616028 
	C574.193176,259.703156 568.946045,263.058685 568.011780,265.999451 
	C566.866272,269.605103 564.033997,268.020477 561.832764,266.888763 
	C548.006775,259.779968 545.865540,246.477295 556.729736,235.458420 
	C559.184692,232.968521 561.584656,230.418564 564.136780,228.031815 
	C567.024780,225.330994 570.031128,223.119308 565.391968,219.025986 
	C563.010925,216.925095 566.178162,215.206650 567.582825,213.918747 
	C569.211853,212.425079 570.834595,208.495102 573.386780,211.040558 
	C577.804443,215.446625 579.905090,212.207153 582.560791,209.423889 
	C583.457520,208.484100 584.222290,207.306046 586.006775,207.098160 
	C589.102722,209.024338 591.388611,212.166504 594.225769,214.685089 
	C595.860291,216.136078 595.624573,217.594513 594.082275,218.897781 
	C592.054993,220.610916 589.956848,222.240158 588.090515,223.743362 
	C590.298401,228.476059 594.107788,230.247787 596.020874,233.803284 
	C593.743530,236.683243 591.915588,240.768539 588.183838,240.811279 
	C584.790405,240.850159 583.328979,236.113937 579.510437,234.364594 
	C574.330383,239.550201 568.085144,243.945145 564.406860,251.205185 
z"/>
<path fill="#000000" opacity="1.000000" stroke="none" 
	d="
M343.034973,207.253632 
	C334.913879,206.973572 330.381439,202.564758 327.895081,195.739273 
	C326.071838,190.734146 324.446472,185.650864 322.915649,180.547607 
	C322.039215,177.625732 321.093658,175.627060 317.400665,177.172546 
	C314.055603,178.572418 313.362732,175.713455 312.940399,173.494080 
	C312.480560,171.077637 309.292236,167.769211 313.586151,166.308777 
	C317.724213,164.901321 317.808441,162.525299 316.347198,159.534882 
	C313.885712,154.497589 315.834473,152.238327 320.801331,151.396194 
	C321.938660,151.203339 323.081085,150.823410 324.123108,150.324722 
	C327.563873,148.677963 329.271362,149.953705 330.239532,153.422577 
	C332.202423,160.455429 332.147247,160.635269 339.033569,157.918121 
	C344.355103,155.818436 344.578857,159.658752 345.843872,162.898727 
	C347.226440,166.439667 346.656036,168.283569 342.666077,169.355682 
	C335.824158,171.194153 335.895996,171.418152 338.018280,178.136154 
	C338.870636,180.834274 339.622955,183.564255 340.492004,186.256760 
	C343.264252,194.845993 345.517151,195.706055 353.541443,191.223953 
	C353.942017,191.385574 354.511505,191.450363 354.828583,191.767502 
	C362.025635,198.966324 361.383301,201.744308 351.717377,205.407013 
	C349.054779,206.415955 346.339172,207.172638 343.034973,207.253632 
z"/>
<path fill="#000000" opacity="1.000000" stroke="none" 
	d="
M522.476685,645.620972 
	C518.515869,648.153564 516.366577,646.938599 515.043701,643.081116 
	C514.410278,641.233948 513.784485,639.277344 512.188293,637.956177 
	C510.156067,637.927307 508.517212,638.893555 507.041992,639.866882 
	C502.664948,642.754639 500.630646,641.319092 498.585846,636.765503 
	C496.724579,632.620544 497.519043,631.022888 501.476593,629.360474 
	C507.439423,626.855835 507.331329,626.593323 504.478607,620.553955 
	C503.057068,617.544434 501.629700,614.537720 500.200775,611.531677 
	C496.948120,604.689026 494.408936,604.061768 488.415161,608.596802 
	C487.905945,608.982117 487.324646,609.272156 486.846771,609.563782 
	C477.357300,603.122314 477.517761,600.086487 487.442719,594.971375 
	C498.845184,589.094910 507.183838,591.801086 512.926025,603.326721 
	C515.151794,607.794067 517.243225,612.329285 519.335754,616.861328 
	C520.185791,618.702332 521.162964,620.243469 523.448914,618.962524 
	C528.994507,615.855225 529.213806,620.992126 530.968445,623.746399 
	C533.217163,627.276245 531.018188,628.798340 528.126160,630.027893 
	C527.684631,630.215576 527.327087,630.600830 526.884216,630.929260 
	C526.664551,634.833923 531.257263,637.773315 529.600952,641.581238 
	C528.582458,643.922913 525.216431,644.324768 522.476685,645.620972 
z"/>
<path fill="#000000" opacity="1.000000" stroke="none" 
	d="
M632.354126,529.584595 
	C636.245361,531.883179 639.761597,534.103638 643.395996,536.109863 
	C646.047485,537.573608 646.297363,539.190918 644.751587,541.734070 
	C637.782227,553.200439 640.520264,551.875610 630.130554,545.844971 
	C615.187927,537.171509 600.419250,528.196655 585.426453,519.612244 
	C581.734802,517.498535 580.832031,515.854919 583.283447,511.990845 
	C589.488220,502.210236 587.525696,503.317688 596.356567,508.473724 
	C608.263977,515.425964 620.140137,522.431824 632.354126,529.584595 
z"/>
<path fill="#000000" opacity="1.000000" stroke="none" 
	d="
M259.247772,205.773178 
	C266.734344,215.336517 273.949585,224.663757 281.324829,233.862686 
	C283.350922,236.389786 283.207001,237.993958 280.545013,239.911575 
	C270.819000,246.917892 273.598450,248.358078 265.362244,238.013580 
	C258.326996,229.177444 251.467453,220.200256 244.358261,211.424759 
	C242.051178,208.576965 241.978958,206.516708 245.239578,204.627762 
	C245.524567,204.462646 245.772079,204.231216 246.031372,204.023560 
	C254.416962,197.307602 252.841309,197.597321 259.247772,205.773178 
z"/>
<path fill="#000000" opacity="1.000000" stroke="none" 
	d="
M163.393951,376.557373 
	C173.977280,377.397919 184.106369,378.118073 194.218674,379.025391 
	C200.268250,379.568146 200.733795,380.309662 199.846176,386.181610 
	C198.496689,395.109070 198.521164,394.879272 189.305634,393.897888 
	C178.382904,392.734711 167.404419,392.102570 156.469421,391.041321 
	C154.184143,390.819550 150.482544,391.438446 150.286179,388.249390 
	C150.049133,384.399872 149.948227,380.246429 151.759705,376.569000 
	C152.316940,375.437805 153.849136,375.669250 154.982498,375.748352 
	C157.637466,375.933655 160.283188,376.251587 163.393951,376.557373 
z"/>
<path fill="#000000" opacity="1.000000" stroke="none" 
	d="
M403.021545,183.110031 
	C406.032257,187.016373 406.110321,190.844055 403.752014,194.558731 
	C401.523651,198.068726 397.927765,198.918121 394.091644,198.174988 
	C390.270569,197.434753 388.090546,194.678925 387.258636,191.025131 
	C386.400940,187.258041 387.683960,184.064438 390.891449,181.911957 
	C395.006927,179.150146 399.028717,179.549469 403.021545,183.110031 
z"/>
<path fill="#000000" opacity="1.000000" stroke="none" 
	d="
M454.213257,617.808289 
	C453.226440,622.829224 450.327209,625.541870 445.751343,626.144348 
	C442.173309,626.615356 439.210754,625.085144 437.307129,621.992920 
	C435.195709,618.563110 435.174561,615.025574 437.640961,611.737915 
	C439.908386,608.715454 443.010437,607.155701 446.777161,608.055908 
	C451.562561,609.199341 453.941833,612.538208 454.213257,617.808289 
z"/>
<path fill="#000000" opacity="1.000000" stroke="none" 
	d="
M235.756195,200.310104 
	C230.076782,197.197495 228.457794,193.296478 230.683945,188.898346 
	C232.833603,184.651352 237.880356,182.190475 241.844727,183.456207 
	C245.941025,184.764069 247.980789,188.298325 247.275482,192.866013 
	C246.524521,197.729431 242.377838,200.528625 235.756195,200.310104 
z"/>
<path fill="#000000" opacity="1.000000" stroke="none" 
	d="
M132.197662,373.800690 
	C136.254898,371.930298 139.740616,372.250122 142.474030,375.349457 
	C145.161835,378.397095 144.855240,382.150726 143.719223,385.681335 
	C142.499405,389.472473 138.343567,391.523712 134.559464,390.628723 
	C130.544006,389.679016 127.532196,385.471710 128.111679,381.291290 
	C128.500397,378.487152 129.325333,375.780334 132.197662,373.800690 
z"/>
</svg>