<?xml version="1.0" standalone="no"?>
<!DOCTYPE svg PUBLIC "-//W3C//DTD SVG 20010904//EN"
 "http://www.w3.org/TR/2001/REC-SVG-20010904/DTD/svg10.dtd">
<svg version="1.0" xmlns="http://www.w3.org/2000/svg"
 width="300.000000pt" height="300.000000pt" viewBox="0 0 300.000000 300.000000"
 preserveAspectRatio="xMidYMid meet">
<metadata>
Created by potrace 1.10, written by Peter Selinger 2001-2011
</metadata>
<g transform="translate(0.000000,300.000000) scale(0.100000,-0.100000)"
fill="#000000" stroke="none">
<path d="M1480 2585 c0 -88 1 -95 20 -95 19 0 20 7 20 95 0 88 -1 95 -20 95
-19 0 -20 -7 -20 -95z"/>
<path d="M1221 2647 c-13 -16 -5 -27 21 -27 11 0 18 7 18 20 0 23 -22 27 -39
7z"/>
<path d="M1641 2573 c-10 -70 -10 -88 1 -94 23 -15 25 -10 37 66 15 104 14
115 -7 115 -16 0 -21 -13 -31 -87z"/>
<path d="M1342 2612 c-37 -11 -25 -27 20 -27 24 0 43 -5 45 -12 3 -8 -5 -13
-22 -13 -63 0 -90 -53 -40 -80 20 -11 28 -10 49 3 18 12 26 13 29 4 3 -9 7 -9
17 0 8 8 10 27 5 62 -9 66 -35 82 -103 63z m66 -89 c-2 -10 -13 -19 -26 -21
-17 -3 -22 2 -22 17 0 16 6 21 26 21 19 0 25 -5 22 -17z"/>
<path d="M1730 2568 c-6 -24 -15 -55 -20 -70 -6 -20 -5 -28 7 -32 19 -8 17
-11 34 44 12 38 18 45 39 45 22 0 25 -4 25 -35 -1 -19 -4 -45 -8 -56 -6 -17
-3 -23 13 -27 16 -4 22 2 30 31 22 79 -1 130 -54 120 -15 -3 -27 0 -30 8 -10
26 -25 14 -36 -28z"/>
<path d="M1233 2585 c3 -5 10 -36 17 -67 11 -46 17 -58 32 -58 17 0 19 5 13
33 -18 90 -25 106 -45 104 -11 -1 -19 -6 -17 -12z"/>
<path d="M1930 2566 c0 -7 -9 -16 -21 -19 -18 -5 -19 -8 -7 -26 10 -16 10 -23
0 -33 -6 -6 -12 -27 -12 -45 0 -27 5 -35 26 -43 32 -13 34 -12 34 1 0 7 -8 17
-17 24 -15 11 -15 16 -3 44 10 24 18 31 32 28 25 -7 34 12 12 27 -10 8 -14 18
-9 26 4 7 2 16 -6 21 -20 13 -29 11 -29 -5z"/>
<path d="M974 2559 c-9 -15 12 -33 30 -26 9 4 16 13 16 22 0 17 -35 21 -46 4z"/>
<path d="M1115 2545 c-50 -49 -22 -115 48 -115 46 0 91 37 64 52 -12 6 -22 3
-37 -12 -22 -22 -52 -15 -64 15 -12 32 27 67 55 49 12 -7 31 15 23 28 -11 17
-66 7 -89 -17z"/>
<path d="M928 2521 c-22 -18 -26 -28 -24 -63 2 -31 7 -42 17 -41 8 2 24 -15
37 -37 21 -37 40 -49 55 -34 3 3 -6 25 -20 47 -21 33 -23 44 -14 59 16 26 14
31 -14 24 -27 -7 -35 10 -14 31 23 23 4 35 -23 14z"/>
<path d="M1018 2509 c-16 -9 -16 -14 12 -69 31 -61 36 -66 56 -52 8 5 2 26
-20 69 -26 52 -34 60 -48 52z"/>
<path d="M2002 2460 c-22 -21 -28 -53 -16 -85 7 -18 54 -45 79 -45 26 0 17 20
-15 31 -26 9 -49 43 -38 55 3 2 26 -10 51 -26 l48 -30 9 26 c26 67 -65 123
-118 74z m86 -39 l4 -23 -31 18 c-38 23 -40 36 -3 32 20 -2 28 -9 30 -27z"/>
<path d="M814 2455 c-3 -8 -3 -19 0 -24 10 -16 36 -1 36 20 0 22 -28 26 -36 4z"/>
<path d="M2152 2373 c-42 -53 -57 -80 -49 -85 20 -13 23 -10 80 66 46 60 54
76 43 86 -11 8 -26 -5 -74 -67z"/>
<path d="M853 2409 c-9 -9 -1 -25 29 -65 42 -56 55 -64 64 -40 5 13 -62 114
-76 115 -4 1 -11 -4 -17 -10z"/>
<path d="M2212 2321 c-51 -56 -59 -71 -48 -80 11 -10 25 0 68 45 29 31 58 62
65 69 9 9 9 15 0 24 -6 6 -14 11 -18 11 -3 0 -34 -31 -67 -69z"/>
<path d="M740 2355 c-9 -11 -9 -15 -1 -15 7 0 11 -10 9 -22 -2 -16 2 -23 14
-23 9 0 30 -13 46 -28 33 -31 68 -33 86 -5 14 23 0 35 -23 21 -15 -10 -23 -7
-45 16 -24 25 -25 29 -11 41 20 17 9 33 -15 20 -13 -7 -21 -7 -25 0 -9 14 -21
12 -35 -5z"/>
<path d="M2324 2329 c-10 -17 23 -46 37 -32 7 7 9 19 6 27 -7 18 -33 21 -43 5z"/>
<path d="M713 2282 c-3 -12 -14 -24 -25 -28 -27 -8 -20 -21 40 -72 44 -38 53
-42 58 -27 5 12 -3 26 -25 47 -33 30 -38 47 -21 64 8 8 6 15 -5 24 -14 11 -17
10 -22 -8z"/>
<path d="M2254 2251 c-40 -39 -48 -52 -39 -64 9 -13 19 -7 64 35 43 42 50 53
39 64 -11 11 -22 5 -64 -35z"/>
<path d="M2306 2199 c-34 -27 -35 -70 -1 -97 32 -25 31 -32 0 -32 -19 0 -29 9
-42 35 -16 34 -43 48 -43 23 0 -24 40 -78 66 -90 28 -13 26 -14 118 47 50 33
56 44 26 52 -11 3 -20 13 -20 23 0 20 -44 60 -65 60 -7 0 -24 -9 -39 -21z m74
-38 c15 -28 13 -39 -11 -51 -16 -9 -25 -8 -40 6 -22 20 -24 35 -7 52 18 18 46
14 58 -7z"/>
<path d="M554 2152 c-9 -13 0 -32 38 -90 26 -41 48 -78 48 -83 0 -5 4 -9 9 -9
15 0 22 30 11 51 -16 28 27 91 58 86 14 -3 26 2 32 13 8 15 4 18 -28 23 -87
14 -108 17 -132 21 -17 3 -30 -1 -36 -12z m84 -28 c26 -7 27 -13 8 -39 -14
-19 -15 -19 -35 5 -32 39 -26 48 27 34z"/>
<path d="M2390 2040 c-11 -11 -20 -33 -20 -49 0 -28 33 -81 51 -81 14 0 11 26
-6 40 -17 14 -21 60 -5 60 5 0 20 -20 33 -45 22 -44 23 -45 45 -29 50 34 15
124 -48 124 -17 0 -39 -9 -50 -20z m90 -31 c9 -15 8 -24 -1 -35 -10 -12 -14
-10 -25 12 -8 14 -14 30 -14 35 0 17 29 9 40 -12z"/>
<path d="M2483 1897 c-58 -19 -77 -37 -54 -51 5 -3 25 1 44 9 46 19 69 11 65
-24 -2 -21 -11 -29 -45 -39 -44 -14 -48 -19 -35 -39 6 -9 18 -9 52 3 25 9 51
20 57 26 17 14 16 63 -1 77 -8 7 -12 20 -9 30 7 28 -6 30 -74 8z"/>
<path d="M570 1896 c0 -7 7 -19 16 -27 13 -10 17 -10 25 2 15 25 10 39 -16 39
-15 0 -25 -6 -25 -14z"/>
<path d="M440 1789 c0 -15 -5 -19 -19 -14 -13 4 -20 0 -24 -15 -4 -15 0 -20
14 -20 10 0 19 -7 19 -15 0 -17 27 -20 32 -4 3 9 14 9 43 -1 36 -12 40 -11 57
10 22 27 24 60 3 60 -8 0 -15 -6 -15 -14 0 -21 -14 -27 -50 -20 -24 5 -30 11
-27 25 3 10 -2 20 -10 23 -22 9 -23 8 -23 -15z"/>
<path d="M2490 1710 c-25 -25 -23 -73 4 -102 24 -26 35 -8 16 27 -16 31 2 65
35 65 31 0 50 -32 35 -59 -14 -28 9 -40 27 -15 16 22 10 60 -14 87 -22 24 -78
22 -103 -3z"/>
<path d="M415 1657 c-9 -45 1 -74 26 -82 26 -8 46 9 54 46 4 16 13 29 21 29
17 0 18 -23 3 -52 -8 -15 -8 -23 0 -31 17 -17 31 9 31 59 0 73 -48 85 -76 19
-19 -46 -36 -45 -32 2 4 48 -19 56 -27 10z"/>
<path d="M2501 1554 c-22 -28 -25 -44 -15 -82 10 -35 29 -20 29 23 0 22 5 40
13 42 8 3 12 -11 12 -50 0 -53 1 -54 25 -49 29 5 65 46 65 74 0 10 -11 30 -25
43 -33 34 -77 33 -104 -1z m93 -30 c7 -17 -10 -54 -24 -54 -6 0 -10 16 -10 35
0 37 22 49 34 19z"/>
<path d="M347 1544 c-16 -16 -7 -44 14 -44 15 0 20 5 17 22 -3 22 -19 33 -31
22z"/>
<path d="M407 1534 c-4 -4 -7 -13 -7 -21 0 -10 19 -13 74 -13 65 0 74 2 72 18
-2 14 -15 18 -67 20 -36 2 -68 0 -72 -4z"/>
<path d="M527 1473 c-4 -3 -7 -15 -7 -25 0 -14 -8 -18 -40 -18 -29 0 -40 4
-40 15 0 8 -7 15 -15 15 -8 0 -15 -9 -15 -20 0 -14 -5 -18 -16 -13 -12 4 -15
0 -12 -18 2 -16 9 -23 21 -21 9 2 17 -2 17 -8 0 -5 7 -10 15 -10 8 0 15 4 15
9 0 5 20 12 44 15 46 7 56 19 56 62 0 23 -10 31 -23 17z"/>
<path d="M507 1354 c-76 -19 -93 -46 -65 -97 7 -12 11 -32 9 -44 -2 -15 2 -21
11 -19 7 3 38 12 70 20 47 14 55 19 51 36 -5 18 -7 18 -46 3 -39 -16 -40 -16
-59 7 -24 29 -10 48 44 56 43 7 48 12 39 35 -5 14 -12 14 -54 3z"/>
<path d="M2456 1286 c-19 -79 -19 -76 -2 -76 14 0 18 8 30 63 4 17 13 27 25
27 28 0 31 -9 16 -50 -7 -21 -11 -41 -8 -44 16 -16 31 -3 38 31 9 49 11 52 36
46 12 -4 18 -11 15 -20 -4 -8 -9 -32 -12 -54 -5 -29 -3 -39 7 -39 14 0 52 127
40 134 -3 2 -35 12 -71 21 -36 9 -72 18 -81 21 -13 4 -20 -9 -33 -60z"/>
<path d="M513 1168 c-13 -13 -23 -37 -23 -52 0 -31 40 -76 68 -76 33 0 72 38
72 71 0 34 -26 79 -46 79 -18 0 -18 -18 1 -36 17 -17 20 -50 6 -59 -5 -3 -20
18 -33 46 l-23 51 -22 -24z m36 -54 c13 -30 9 -39 -14 -31 -15 7 -22 57 -7 57
5 0 14 -12 21 -26z"/>
<path d="M2427 1183 c-16 -15 -5 -32 27 -43 41 -13 59 -32 50 -54 -8 -20 -46
-21 -83 -1 -26 13 -30 13 -41 -1 -7 -8 -11 -16 -9 -18 8 -7 102 -46 110 -46
17 0 49 40 49 61 0 11 7 28 16 37 16 15 13 18 -42 43 -67 31 -68 31 -77 22z"/>
<path d="M597 1023 c-50 -31 -56 -38 -44 -50 12 -13 21 -10 68 18 30 18 55 33
57 34 5 4 -10 35 -17 34 -3 0 -32 -17 -64 -36z"/>
<path d="M2284 1020 c-37 -55 -28 -79 51 -134 59 -41 65 -43 70 -25 4 11 18
31 31 45 32 31 29 70 -8 97 -37 27 -77 15 -100 -31 -15 -31 -17 -32 -26 -15
-11 20 1 52 25 66 7 4 13 15 13 22 0 28 -30 15 -56 -25z m131 -51 c4 -5 4 -21
1 -35 -5 -17 -13 -24 -30 -24 -33 0 -50 23 -36 49 11 22 54 29 65 10z"/>
<path d="M670 970 c0 -11 5 -19 11 -17 6 1 16 -6 22 -15 16 -25 -2 -52 -37
-56 -22 -3 -27 1 -32 27 -7 33 -29 48 -38 25 -14 -36 35 -94 79 -94 12 0 31
10 43 23 29 31 29 77 -1 105 -29 27 -47 28 -47 2z"/>
<path d="M494 965 c-7 -18 3 -35 21 -35 21 0 28 19 15 35 -16 19 -29 19 -36 0z"/>
<path d="M2243 884 c-4 -10 10 -30 43 -59 43 -38 51 -41 64 -29 13 12 8 20
-35 59 -55 49 -63 52 -72 29z"/>
<path d="M739 851 l-24 -19 23 -46 c12 -26 22 -51 22 -57 0 -21 -45 -3 -58 23
-8 17 -18 25 -27 21 -23 -8 -18 -22 19 -59 37 -37 66 -43 90 -18 21 21 20 40
-5 81 -26 42 -20 69 12 52 12 -6 26 -24 32 -40 12 -32 15 -33 36 -20 28 18
-45 101 -88 101 -5 0 -19 -9 -32 -19z"/>
<path d="M2194 829 c-3 -6 6 -23 21 -39 32 -33 31 -73 -2 -78 -15 -2 -29 8
-49 33 -25 33 -29 35 -43 21 -14 -14 -11 -20 24 -56 22 -23 49 -40 61 -40 12
0 41 17 63 38 l41 38 -48 47 c-51 50 -57 53 -68 36z"/>
<path d="M2364 775 c-7 -18 3 -35 21 -35 15 0 28 27 19 41 -8 14 -34 11 -40
-6z"/>
<path d="M917 680 c-22 -39 -26 -54 -17 -69 13 -26 49 -51 72 -51 29 0 21 25
-12 37 -16 6 -30 18 -30 27 0 20 14 20 45 0 33 -21 65 -10 65 23 0 27 -24 52
-51 53 -9 0 -19 7 -23 15 -9 25 -20 17 -49 -35z m91 -22 c2 -12 -3 -18 -16
-18 -22 0 -46 23 -35 34 13 13 48 1 51 -16z"/>
<path d="M2012 687 c-12 -13 -22 -26 -22 -30 0 -12 23 -8 39 7 21 18 53 24 58
10 2 -5 -15 -20 -37 -33 -45 -25 -48 -31 -22 -54 57 -52 150 30 105 92 -28 37
-90 41 -121 8z m98 -57 c0 -13 -9 -22 -25 -26 -37 -9 -44 4 -15 26 32 25 40
25 40 0z"/>
<path d="M1060 649 c0 -7 8 -17 17 -24 14 -11 15 -16 3 -44 -11 -27 -17 -31
-37 -27 -26 7 -34 -18 -9 -27 9 -3 12 -14 9 -25 -6 -23 22 -38 34 -18 5 7 17
16 28 20 16 6 17 9 5 16 -12 7 -12 13 -1 37 24 51 23 70 -4 87 -29 19 -45 21
-45 5z"/>
<path d="M1873 616 c-37 -32 -23 -44 22 -20 26 14 38 15 46 7 9 -9 0 -17 -32
-33 -54 -28 -51 -24 -44 -43 10 -26 59 -41 87 -26 51 27 61 69 27 113 -26 33
-68 34 -106 2z m97 -55 c0 -16 -32 -42 -48 -39 -26 5 -24 24 5 35 37 14 43 15
43 4z"/>
<path d="M1167 603 c-4 -3 -7 -18 -7 -33 0 -14 -5 -31 -12 -38 -9 -9 -9 -18 0
-37 13 -27 48 -45 88 -45 36 0 25 20 -16 34 -20 6 -36 19 -38 29 -3 16 -1 17
16 8 44 -24 92 -7 92 31 0 21 -29 38 -64 38 -14 0 -26 5 -26 10 0 11 -23 14
-33 3z m81 -55 c2 -12 -3 -18 -15 -18 -26 0 -47 16 -38 29 10 18 49 9 53 -11z"/>
<path d="M1788 593 c-15 -4 -15 -8 -3 -44 15 -42 12 -64 -11 -73 -8 -3 -14
-12 -14 -21 0 -17 25 -21 35 -5 3 6 18 10 32 10 22 0 24 3 19 23 -4 12 -12 43
-19 70 -6 26 -14 46 -17 46 -3 -1 -13 -3 -22 -6z"/>
<path d="M1345 546 c-29 -13 -55 -51 -55 -82 0 -21 29 -63 52 -75 11 -6 43
-13 72 -15 l52 -5 10 88 c6 48 10 89 10 89 -1 1 -26 4 -56 8 -36 4 -65 1 -85
-8z m97 -51 c-7 -88 -10 -95 -45 -89 -92 17 -80 128 13 121 32 -2 35 -4 32
-32z"/>
<path d="M1607 546 c-9 -23 19 -41 38 -26 12 10 13 16 4 26 -15 18 -35 18 -42
0z"/>
</g>
</svg>
