<?xml version="1.0" encoding="UTF-8"?>
<svg version="1.1" xmlns="http://www.w3.org/2000/svg" width="512" height="512">
<path d="M0 0 C10.83991773 9.4727209 19.48193589 19.7180988 23.3515625 33.8359375 C23.9367643 33.83479834 24.5219661 33.83365918 25.12490129 33.8324855 C59.81315846 33.76534284 94.50140265 33.71387356 129.189711 33.68274151 C133.35531526 33.67898942 137.52091938 33.67510645 141.68652344 33.67114258 C142.51581586 33.67035565 143.34510828 33.66956872 144.19953078 33.66875794 C157.62512218 33.65570608 171.05067502 33.63205344 184.47624356 33.60447911 C198.25339097 33.57641881 212.03051819 33.55975992 225.807693 33.55367202 C234.30809729 33.54955687 242.80839259 33.53656218 251.30876333 33.5121881 C257.13877213 33.4963232 262.96872462 33.49153885 268.79875344 33.49543337 C272.16180417 33.49735377 275.52451111 33.49277896 278.88755417 33.47832108 C282.5370452 33.4634003 286.1860695 33.46698292 289.83557129 33.47517395 C290.89395218 33.46643543 291.95233308 33.4576969 293.04278612 33.44869357 C299.8257971 33.48985521 305.87089076 34.06080733 311.375 38.44921875 C311.82101562 39.00996094 312.26703125 39.57070312 312.7265625 40.1484375 C313.41878906 40.97794922 313.41878906 40.97794922 314.125 41.82421875 C317.75165964 47.77240256 317.63791604 53.67359968 317.61225891 60.41220093 C317.61608446 61.47749012 317.61991001 62.5427793 317.62385148 63.64034998 C317.6341703 67.20999055 317.63019138 70.77946993 317.6262207 74.34912109 C317.63056779 76.90842335 317.63575093 79.4677243 317.64170837 82.02702332 C317.65371802 88.25732979 317.65624969 94.48757684 317.65390811 100.71789263 C317.65212415 105.78299882 317.65387627 110.84809194 317.65813255 115.91319656 C317.65872774 116.63444312 317.65932293 117.35568969 317.65993616 118.0987922 C317.66114793 119.56407415 317.66236206 121.0293561 317.66357853 122.49463804 C317.6744522 136.23277145 317.67229245 149.9708803 317.66619369 163.70901509 C317.6610252 176.27095425 317.67227845 188.83281585 317.69129191 201.39473967 C317.71067454 214.29971721 317.71892553 227.20465807 317.71516865 240.10965025 C317.71325719 247.35224372 317.71573881 254.59477118 317.72988319 261.83735275 C317.74305023 268.64831241 317.74053118 275.45909174 317.72747231 282.27005959 C317.72510377 284.76939382 317.72785107 287.26873893 317.73609543 289.76806068 C317.74654079 293.18079013 317.73847934 296.59299619 317.7257843 300.00570679 C317.73315859 300.99384884 317.74053287 301.9819909 317.74813062 303.00007665 C317.69660077 309.58843877 317.02076675 315.55952091 312.703125 320.859375 C312.13335937 321.30539062 311.56359375 321.75140625 310.9765625 322.2109375 C310.41195313 322.67242187 309.84734375 323.13390625 309.265625 323.609375 C305.00190167 326.34163852 301.35234771 327.08528041 296.32145691 327.07644653 C295.11135956 327.07919586 293.90126221 327.08194519 292.65449524 327.08477783 C291.33531601 327.07758728 290.01613678 327.07039673 288.65698242 327.06298828 C287.24739592 327.06242386 285.83780882 327.06274134 284.42822266 327.06387329 C280.60834094 327.06444659 276.78858509 327.05269602 272.9687326 327.03872538 C268.97422281 327.02621419 264.97971007 327.02504721 260.98518372 327.02267456 C253.42401341 327.01646094 245.86290102 327.0000517 238.3017562 326.97997558 C229.69238052 326.95761293 221.08300206 326.94662223 212.47360456 326.93658471 C194.76622439 326.91568537 177.0588981 326.88051167 159.3515625 326.8359375 C159.63304642 327.3922435 159.91453033 327.9485495 160.20454407 328.52171326 C163.14821949 334.34239762 166.0832503 340.16738244 169.01342773 345.99487305 C170.10629338 348.16557157 171.20131615 350.33518552 172.29858398 352.50366211 C173.88060627 355.63108246 175.45468261 358.76239516 177.02734375 361.89453125 C177.51495682 362.85427353 178.00256989 363.81401581 178.50495911 364.80284119 C181.29738638 370.38632095 183.52497557 375.86409472 185.3515625 381.8359375 C186.44098145 381.81499023 187.53040039 381.79404297 188.65283203 381.77246094 C192.71177928 381.69981885 196.77066956 381.65405032 200.83007812 381.61621094 C202.58375729 381.5961504 204.33737003 381.56889499 206.09082031 381.53417969 C208.61800568 381.48541448 211.14430341 381.46291358 213.671875 381.4453125 C214.45023712 381.42466736 215.22859924 381.40402222 216.0305481 381.38275146 C221.26507014 381.38061524 224.19948875 382.3728576 228.3515625 385.8359375 C231.39846421 390.30472667 232.31162086 394.55034145 231.3515625 399.8359375 C228.65611386 404.93803672 225.8301314 408.00974787 220.3515625 409.8359375 C217.53088077 409.9384903 214.73463337 409.98374343 211.91363525 409.98310852 C210.60637848 409.98862355 210.60637848 409.98862355 209.27271247 409.99425 C206.34098209 410.00529756 203.40928715 410.00913249 200.47753906 410.01293945 C198.38010546 410.01920326 196.28267297 410.02584998 194.1852417 410.03285217 C188.47852363 410.05026872 182.77181394 410.06081559 177.06507587 410.0690577 C173.50089942 410.07420617 169.93672558 410.08028195 166.37255096 410.08656883 C155.22449973 410.1056222 144.07645513 410.11985339 132.92839074 410.1281808 C120.05335781 410.13795664 107.17849665 410.16428473 94.30352426 410.20468169 C84.35608912 410.23482377 74.40870329 410.24964784 64.46122336 410.25296181 C58.51803964 410.25531434 52.5750394 410.26430132 46.6319046 410.28942299 C41.04062846 410.3126754 35.44965696 410.31694821 29.85834503 410.30666161 C27.80687447 410.30616546 25.75538905 410.31250901 23.70396423 410.32621765 C20.90141847 410.34389689 18.09997071 410.33684985 15.29742432 410.32368469 C14.48719763 410.33465394 13.67697094 410.34562318 12.84219193 410.35692483 C7.23271709 410.29338404 3.9890108 409.01997108 -0.6484375 405.8359375 C-4.08534209 402.06642924 -4.15715399 398.17736527 -4.00390625 393.2734375 C-3.36310741 388.87938831 -1.06852093 386.27173743 1.96191406 383.20776367 C5.45773151 381.20091874 8.90850124 381.35603884 12.8359375 381.32421875 C14.05932831 381.29729195 14.05932831 381.29729195 15.30743408 381.26982117 C17.90542473 381.2157573 20.50323208 381.18183568 23.1015625 381.1484375 C24.8659109 381.11526089 26.63023513 381.08077091 28.39453125 381.04492188 C32.71340933 380.9600333 37.03223342 380.89320373 41.3515625 380.8359375 C49.18100812 365.29900024 56.88103815 349.7166471 64.32104492 333.98876953 C65.30854554 331.9258033 66.3262381 329.88029873 67.3515625 327.8359375 C59.93616359 327.65673072 52.52133364 327.5351519 45.10424805 327.45141602 C42.58743424 327.41646698 40.07075986 327.36888986 37.55444336 327.30786133 C18.71884643 326.65650752 18.71884643 326.65650752 1.41967773 333.08813477 C-8.34669869 338.65171309 -20.349665 339.88459055 -31.4140625 339.8515625 C-32.39665039 339.84930664 -33.37923828 339.84705078 -34.39160156 339.84472656 C-35.13635742 339.84182617 -35.88111328 339.83892578 -36.6484375 339.8359375 C-40.61046405 353.07411547 -44.36866812 366.35852418 -47.91015625 379.71484375 C-48.27550391 381.08923908 -48.64091149 382.46361849 -49.00637817 383.83798218 C-50.50015456 389.46017313 -51.99152615 395.0829584 -53.46801758 400.7097168 C-54.38823805 404.21507753 -55.31818857 407.71773391 -56.25440407 411.2188549 C-56.77103158 413.1617254 -57.27710816 415.10739185 -57.78288269 417.05311584 C-61.55098875 431.09865721 -61.55098875 431.09865721 -67.3359375 436.2109375 C-72.90751984 438.94416657 -77.43350783 439.5004164 -83.3984375 437.7109375 C-88.15575206 434.96633295 -91.49187696 431.91318023 -93.6484375 426.8359375 C-95.4464743 417.33580496 -91.37857779 407.14779362 -88.87109375 398.09765625 C-88.37909829 396.28577721 -87.8882676 394.47358153 -87.39854431 392.66108704 C-86.11279211 387.91389644 -84.81233305 383.17086364 -83.50836182 378.4286499 C-81.9248506 372.65953007 -80.35823461 366.88580466 -78.78964138 361.11261463 C-77.56959532 356.62319936 -76.34690876 352.13456256 -75.11598206 347.64811707 C-74.89032562 346.82352997 -74.66466919 345.99894287 -74.43217468 345.14936829 C-74.01249222 343.61612928 -73.59153128 342.08323937 -73.16900635 340.55078125 C-72.19796993 336.9976034 -71.31156219 333.46001286 -70.6484375 329.8359375 C-71.52628906 329.58328125 -72.40414062 329.330625 -73.30859375 329.0703125 C-78.80236688 327.03986535 -83.04669708 323.39029207 -87.6484375 319.8359375 C-88.57849609 319.15917969 -88.57849609 319.15917969 -89.52734375 318.46875 C-105.56159126 306.0277194 -115.72930439 284.5023125 -118.6484375 264.8359375 C-119.55197311 250.4715907 -119.49159333 236.48758299 -114.6484375 222.8359375 C-114.2359375 221.65257812 -113.8234375 220.46921875 -113.3984375 219.25 C-108.81645852 207.45661092 -101.68727766 196.83162483 -92.046875 188.58203125 C-90.43193252 186.87386258 -90.43193252 186.87386258 -90.3125 184.30859375 C-90.49863932 181.58652855 -90.49863932 181.58652855 -92.6484375 178.8359375 C-92.81700604 176.08741322 -92.8817509 173.45491891 -92.8359375 170.7109375 C-92.83529297 169.96972656 -92.83464844 169.22851562 -92.83398438 168.46484375 C-92.78883209 162.97633209 -92.78883209 162.97633209 -91.6484375 161.8359375 C-92.6178125 161.3615625 -93.5871875 160.8871875 -94.5859375 160.3984375 C-97.6484375 158.8359375 -97.6484375 158.8359375 -98.6484375 157.8359375 C-98.82869512 154.86316429 -98.92655945 151.93578494 -98.9609375 148.9609375 C-99.00444336 147.71763672 -99.00444336 147.71763672 -99.04882812 146.44921875 C-99.11257071 140.37896311 -99.11257071 140.37896311 -96.87890625 137.765625 C-94.6484375 136.8359375 -94.6484375 136.8359375 -90.6484375 136.8359375 C-94.96040654 125.71334187 -100.10721133 117.02870435 -107.6484375 107.8359375 C-121.16448259 89.92783133 -127.09932135 69.4394968 -124.15234375 47.0703125 C-120.02408675 26.2657631 -109.52450256 7.95227194 -91.72998047 -4.03833008 C-63.21183479 -22.40797789 -26.50683895 -21.6589805 0 0 Z " fill="#C8EFFE" transform="translate(190.6484375,45.1640625)"/>
<path d="M0 0 C10.83991773 9.4727209 19.48193589 19.7180988 23.3515625 33.8359375 C23.9367643 33.83479834 24.5219661 33.83365918 25.12490129 33.8324855 C59.81315846 33.76534284 94.50140265 33.71387356 129.189711 33.68274151 C133.35531526 33.67898942 137.52091938 33.67510645 141.68652344 33.67114258 C142.51581586 33.67035565 143.34510828 33.66956872 144.19953078 33.66875794 C157.62512218 33.65570608 171.05067502 33.63205344 184.47624356 33.60447911 C198.25339097 33.57641881 212.03051819 33.55975992 225.807693 33.55367202 C234.30809729 33.54955687 242.80839259 33.53656218 251.30876333 33.5121881 C257.13877213 33.4963232 262.96872462 33.49153885 268.79875344 33.49543337 C272.16180417 33.49735377 275.52451111 33.49277896 278.88755417 33.47832108 C282.5370452 33.4634003 286.1860695 33.46698292 289.83557129 33.47517395 C290.89395218 33.46643543 291.95233308 33.4576969 293.04278612 33.44869357 C299.8257971 33.48985521 305.87089076 34.06080733 311.375 38.44921875 C311.82101562 39.00996094 312.26703125 39.57070312 312.7265625 40.1484375 C313.41878906 40.97794922 313.41878906 40.97794922 314.125 41.82421875 C317.75165964 47.77240256 317.63791604 53.67359968 317.61225891 60.41220093 C317.61608446 61.47749012 317.61991001 62.5427793 317.62385148 63.64034998 C317.6341703 67.20999055 317.63019138 70.77946993 317.6262207 74.34912109 C317.63056779 76.90842335 317.63575093 79.4677243 317.64170837 82.02702332 C317.65371802 88.25732979 317.65624969 94.48757684 317.65390811 100.71789263 C317.65212415 105.78299882 317.65387627 110.84809194 317.65813255 115.91319656 C317.65872774 116.63444312 317.65932293 117.35568969 317.65993616 118.0987922 C317.66114793 119.56407415 317.66236206 121.0293561 317.66357853 122.49463804 C317.6744522 136.23277145 317.67229245 149.9708803 317.66619369 163.70901509 C317.6610252 176.27095425 317.67227845 188.83281585 317.69129191 201.39473967 C317.71067454 214.29971721 317.71892553 227.20465807 317.71516865 240.10965025 C317.71325719 247.35224372 317.71573881 254.59477118 317.72988319 261.83735275 C317.74305023 268.64831241 317.74053118 275.45909174 317.72747231 282.27005959 C317.72510377 284.76939382 317.72785107 287.26873893 317.73609543 289.76806068 C317.74654079 293.18079013 317.73847934 296.59299619 317.7257843 300.00570679 C317.73315859 300.99384884 317.74053287 301.9819909 317.74813062 303.00007665 C317.69660077 309.58843877 317.02076675 315.55952091 312.703125 320.859375 C312.13335937 321.30539062 311.56359375 321.75140625 310.9765625 322.2109375 C310.41195313 322.67242187 309.84734375 323.13390625 309.265625 323.609375 C305.00190167 326.34163852 301.35234771 327.08528041 296.32145691 327.07644653 C295.11135956 327.07919586 293.90126221 327.08194519 292.65449524 327.08477783 C291.33531601 327.07758728 290.01613678 327.07039673 288.65698242 327.06298828 C287.24739592 327.06242386 285.83780882 327.06274134 284.42822266 327.06387329 C280.60834094 327.06444659 276.78858509 327.05269602 272.9687326 327.03872538 C268.97422281 327.02621419 264.97971007 327.02504721 260.98518372 327.02267456 C253.42401341 327.01646094 245.86290102 327.0000517 238.3017562 326.97997558 C229.69238052 326.95761293 221.08300206 326.94662223 212.47360456 326.93658471 C194.76622439 326.91568537 177.0588981 326.88051167 159.3515625 326.8359375 C159.63304642 327.3922435 159.91453033 327.9485495 160.20454407 328.52171326 C163.14821949 334.34239762 166.0832503 340.16738244 169.01342773 345.99487305 C170.10629338 348.16557157 171.20131615 350.33518552 172.29858398 352.50366211 C173.88060627 355.63108246 175.45468261 358.76239516 177.02734375 361.89453125 C177.51495682 362.85427353 178.00256989 363.81401581 178.50495911 364.80284119 C181.29738638 370.38632095 183.52497557 375.86409472 185.3515625 381.8359375 C186.44098145 381.81499023 187.53040039 381.79404297 188.65283203 381.77246094 C192.71177928 381.69981885 196.77066956 381.65405032 200.83007812 381.61621094 C202.58375729 381.5961504 204.33737003 381.56889499 206.09082031 381.53417969 C208.61800568 381.48541448 211.14430341 381.46291358 213.671875 381.4453125 C214.45023712 381.42466736 215.22859924 381.40402222 216.0305481 381.38275146 C221.26507014 381.38061524 224.19948875 382.3728576 228.3515625 385.8359375 C231.39846421 390.30472667 232.31162086 394.55034145 231.3515625 399.8359375 C228.65611386 404.93803672 225.8301314 408.00974787 220.3515625 409.8359375 C217.53088077 409.9384903 214.73463337 409.98374343 211.91363525 409.98310852 C210.60637848 409.98862355 210.60637848 409.98862355 209.27271247 409.99425 C206.34098209 410.00529756 203.40928715 410.00913249 200.47753906 410.01293945 C198.38010546 410.01920326 196.28267297 410.02584998 194.1852417 410.03285217 C188.47852363 410.05026872 182.77181394 410.06081559 177.06507587 410.0690577 C173.50089942 410.07420617 169.93672558 410.08028195 166.37255096 410.08656883 C155.22449973 410.1056222 144.07645513 410.11985339 132.92839074 410.1281808 C120.05335781 410.13795664 107.17849665 410.16428473 94.30352426 410.20468169 C84.35608912 410.23482377 74.40870329 410.24964784 64.46122336 410.25296181 C58.51803964 410.25531434 52.5750394 410.26430132 46.6319046 410.28942299 C41.04062846 410.3126754 35.44965696 410.31694821 29.85834503 410.30666161 C27.80687447 410.30616546 25.75538905 410.31250901 23.70396423 410.32621765 C20.90141847 410.34389689 18.09997071 410.33684985 15.29742432 410.32368469 C14.48719763 410.33465394 13.67697094 410.34562318 12.84219193 410.35692483 C7.23271709 410.29338404 3.9890108 409.01997108 -0.6484375 405.8359375 C-4.08534209 402.06642924 -4.15715399 398.17736527 -4.00390625 393.2734375 C-3.36310741 388.87938831 -1.06852093 386.27173743 1.96191406 383.20776367 C5.45773151 381.20091874 8.90850124 381.35603884 12.8359375 381.32421875 C14.05932831 381.29729195 14.05932831 381.29729195 15.30743408 381.26982117 C17.90542473 381.2157573 20.50323208 381.18183568 23.1015625 381.1484375 C24.8659109 381.11526089 26.63023513 381.08077091 28.39453125 381.04492188 C32.71340933 380.9600333 37.03223342 380.89320373 41.3515625 380.8359375 C49.18100812 365.29900024 56.88103815 349.7166471 64.32104492 333.98876953 C65.30815212 331.9266252 66.32913208 329.88079835 67.3515625 327.8359375 C49.8615625 327.5059375 32.3715625 327.1759375 14.3515625 326.8359375 C17.66370451 323.52379549 20.50991276 320.84868722 24.1640625 318.0859375 C30.09894019 313.41077974 35.15665512 308.12829857 39.3515625 301.8359375 C41.20937884 301.45692998 41.20937884 301.45692998 43.51761818 301.45117664 C44.39593257 301.4417201 45.27424695 301.43226356 46.17917693 301.42252046 C47.14997927 301.42736803 48.12078161 301.43221561 49.1210022 301.43721008 C50.66102294 301.42723984 50.66102294 301.42723984 52.2321552 301.41706818 C55.69474536 301.39831926 59.15699357 301.40105147 62.61962891 301.40356445 C65.09280388 301.39455456 67.56597437 301.38422927 70.03913879 301.37268066 C75.3751801 301.35073877 80.71112334 301.33800199 86.04719925 301.33355141 C93.76230423 301.3271008 101.47729063 301.30418275 109.19234793 301.27720811 C121.70861894 301.23389558 134.22488498 301.20395438 146.74121094 301.18237305 C158.90171762 301.16137671 171.06218353 301.13411341 183.22265625 301.09838867 C183.97186669 301.09618985 184.72107714 301.09399102 185.49299093 301.09172557 C189.25145185 301.08065625 193.0099124 301.06946338 196.76837277 301.05820906 C227.96273538 300.96496076 259.15711288 300.89361411 290.3515625 300.8359375 C290.37435242 270.27837916 290.39206044 239.72082276 290.40262783 209.16325796 C290.40387861 205.55944084 290.40517292 201.95562374 290.40649414 198.35180664 C290.40675645 197.63432141 290.40701876 196.91683617 290.40728902 196.17760896 C290.41164581 184.54500082 290.41953341 172.91239759 290.4287153 161.27979238 C290.43805159 149.35250697 290.44361806 137.42522415 290.44565099 125.49793524 C290.44690256 118.79484852 290.4499243 112.09177207 290.45729256 105.38868904 C290.46404857 99.08758571 290.46618032 92.78649822 290.46467018 86.48539162 C290.4649467 84.16534082 290.46695429 81.84528953 290.47076797 79.52524185 C290.47569868 76.37264807 290.4745631 73.22011515 290.47181702 70.06752014 C290.47472986 69.13660539 290.4776427 68.20569064 290.48064381 67.24656636 C290.87893353 63.22163238 290.87893353 63.22163238 289.3515625 59.8359375 C286.77214396 59.72576557 284.21892384 59.68097459 281.63853455 59.67771912 C280.82096965 59.67278114 280.00340475 59.66784316 279.16106516 59.66275555 C276.40026631 59.64730255 273.63949084 59.63899894 270.87866211 59.63061523 C268.90809419 59.62104283 266.93752836 59.61103314 264.96696472 59.60061646 C259.59943978 59.57349219 254.23190598 59.55252349 248.86435008 59.53261447 C243.26156532 59.51080114 237.6588081 59.48338977 232.05604553 59.45655823 C221.43838688 59.40656821 210.82071299 59.36165287 200.20302445 59.31853586 C188.11856971 59.26921729 176.03414259 59.21427927 163.94971454 59.15885627 C139.08368962 59.04493941 114.21763821 58.93812162 89.3515625 58.8359375 C89.22092911 59.62415894 89.09029572 60.41238037 88.95570374 61.2244873 C88.3515625 63.8359375 88.3515625 63.8359375 86.68530273 65.61914062 C81.76615245 68.18395337 75.83717798 67.34686569 70.4140625 67.3359375 C69.13853516 67.36429687 67.86300781 67.39265625 66.54882812 67.421875 C56.11811297 67.44375379 56.11811297 67.44375379 52.97265625 64.4921875 C51.3515625 61.8359375 51.3515625 61.8359375 51.3515625 58.8359375 C43.4315625 58.8359375 35.5115625 58.8359375 27.3515625 58.8359375 C27.3515625 62.4659375 27.3515625 66.0959375 27.3515625 69.8359375 C26.77688725 72.75168614 26.18107612 75.34943054 25.2890625 78.1484375 C25.06718262 78.86773437 24.84530273 79.58703125 24.61669922 80.328125 C21.05207194 91.38017513 15.80991691 100.91364989 8.3515625 109.8359375 C1.27332413 118.56169687 -3.90411638 126.85865301 -6.6484375 137.8359375 C-34.3684375 137.8359375 -62.0884375 137.8359375 -90.6484375 137.8359375 C-92.2984375 133.5459375 -93.9484375 129.2559375 -95.6484375 124.8359375 C-98.79800945 118.90302289 -102.30122339 113.92919485 -106.6484375 108.8359375 C-120.82664191 92.20350958 -126.21996634 72.46964379 -124.6484375 50.8359375 C-121.97102288 30.77624514 -112.5651975 12.19957978 -96.64453125 -0.57421875 C-67.59592604 -22.02624605 -28.39626612 -23.20284872 0 0 Z " fill="#C8C9CD" transform="translate(190.6484375,45.1640625)"/>
<path d="M0 0 C11.01350011 -0.06947901 22.02694816 -0.12280064 33.04062271 -0.15543652 C38.1546019 -0.17109929 43.26843126 -0.19234883 48.38232422 -0.22631836 C53.3165713 -0.25888984 58.25067417 -0.2768484 63.18502045 -0.28463173 C65.06851217 -0.2901792 66.95199592 -0.30101195 68.83542633 -0.31719017 C71.47151307 -0.33893507 74.10700222 -0.34196816 76.74316406 -0.34057617 C77.91381157 -0.35675491 77.91381157 -0.35675491 79.10810852 -0.3732605 C82.29957781 -0.3549983 84.64089922 -0.18538171 87.50042725 1.29081726 C89 3 89 3 89.25 6.6875 C89.1675 7.780625 89.085 8.87375 89 10 C89.82371094 10.08507812 90.64742188 10.17015625 91.49609375 10.2578125 C109.20766313 14.00942697 124.77399972 28.65746306 134.76855469 43.10253906 C147.670423 62.98226161 152.88348993 87.27619358 147.92358398 110.65820312 C144.50577744 124.0479023 138.81087752 136.34382549 130 147 C129.35804688 147.81597656 128.71609375 148.63195312 128.0546875 149.47265625 C113.98808973 166.34722505 93.96365634 176.9194698 72.25 179.75 C68.90734208 179.9993688 65.58563613 180.02562876 62.234375 180.015625 C61.25178711 180.01336914 60.26919922 180.01111328 59.25683594 180.00878906 C58.13970215 180.00443848 58.13970215 180.00443848 57 180 C53.03797345 193.23817797 49.27976938 206.52258668 45.73828125 219.87890625 C45.37293359 221.25330158 45.00752601 222.62768099 44.64205933 224.00204468 C43.14828294 229.62423563 41.65691135 235.2470209 40.18041992 240.8737793 C39.26019945 244.37914003 38.33024893 247.88179641 37.39403343 251.3829174 C36.87740592 253.3257879 36.37132934 255.27145435 35.86555481 257.21717834 C32.09744875 271.26271971 32.09744875 271.26271971 26.3125 276.375 C20.74091766 279.10822907 16.21492967 279.6644789 10.25 277.875 C5.49268544 275.13039545 2.15656054 272.07724273 0 267 C-1.7980368 257.49986746 2.26985971 247.31185612 4.77734375 238.26171875 C5.26933921 236.44983971 5.7601699 234.63764403 6.24989319 232.82514954 C7.53564539 228.07795894 8.83610445 223.33492614 10.14007568 218.5927124 C11.7235869 212.82359257 13.29020289 207.04986716 14.85879612 201.27667713 C16.07884218 196.78726186 17.30152874 192.29862506 18.53245544 187.81217957 C18.75811188 186.98759247 18.98376831 186.16300537 19.21626282 185.31343079 C19.63594528 183.78019178 20.05690622 182.24730187 20.47943115 180.71484375 C21.45046757 177.1616659 22.33687531 173.62407536 23 170 C21.68322266 169.62101562 21.68322266 169.62101562 20.33984375 169.234375 C14.84607062 167.20392785 10.60174042 163.55435457 6 160 C5.37996094 159.54882812 4.75992188 159.09765625 4.12109375 158.6328125 C-11.91315376 146.1917819 -22.08086689 124.666375 -25 105 C-25.90353561 90.6356532 -25.84315583 76.65164549 -21 63 C-20.5875 61.81664062 -20.175 60.63328125 -19.75 59.4140625 C-15.16802102 47.62067342 -8.03884016 36.99568733 1.6015625 28.74609375 C3.21650498 27.03792508 3.21650498 27.03792508 3.3359375 24.47265625 C3.14979818 21.75059105 3.14979818 21.75059105 1 19 C0.83143146 16.25147572 0.7666866 13.61898141 0.8125 10.875 C0.81314453 10.13378906 0.81378906 9.39257812 0.81445312 8.62890625 C0.85960541 3.14039459 0.85960541 3.14039459 2 2 C1.34 1.34 0.68 0.68 0 0 Z " fill="#44A2FE" transform="translate(97,205)"/>
<path d="M0 0 C12.78153859 11.16945264 21.19575545 23.19301355 25.3515625 39.8359375 C25.52743896 40.51092285 25.70331543 41.1859082 25.88452148 41.88134766 C30.97172238 62.63566928 26.01478749 82.77280206 15.3515625 100.8359375 C13.17978298 103.98300689 10.80263231 106.90376928 8.3515625 109.8359375 C1.27332413 118.56169687 -3.90411638 126.85865301 -6.6484375 137.8359375 C-34.3684375 137.8359375 -62.0884375 137.8359375 -90.6484375 137.8359375 C-92.2984375 133.5459375 -93.9484375 129.2559375 -95.6484375 124.8359375 C-98.79800945 118.90302289 -102.30122339 113.92919485 -106.6484375 108.8359375 C-120.82664191 92.20350958 -126.21996634 72.46964379 -124.6484375 50.8359375 C-121.97102288 30.77624514 -112.5651975 12.19957978 -96.64453125 -0.57421875 C-67.59592604 -22.02624605 -28.39626612 -23.20284872 0 0 Z " fill="#FED44F" transform="translate(190.6484375,45.1640625)"/>
<path d="M0 0 C1.6261793 -0.01451946 3.25274436 -0.00114332 4.87861633 0.03364563 C6.21063583 0.03255043 6.21063583 0.03255043 7.56956482 0.03143311 C10.50824316 0.03491989 13.44534147 0.07383233 16.38374329 0.11299133 C18.41968927 0.12231558 20.45564646 0.12943352 22.49160767 0.13442993 C27.85294005 0.15353021 33.21359624 0.20265749 38.57466125 0.25794983 C44.044132 0.30907679 49.51371189 0.33192998 54.98335266 0.35713196 C65.71737388 0.41077298 76.45089301 0.49612272 87.18452454 0.60127258 C90.41373746 6.98327317 93.63330371 13.37007331 96.84638977 19.76020813 C97.93925541 21.93090666 99.03427818 24.10052061 100.13154602 26.26899719 C101.7135683 29.39641754 103.28764464 32.52773024 104.86030579 35.65986633 C105.34791885 36.61960861 105.83553192 37.57935089 106.33792114 38.56817627 C109.13034841 44.15165603 111.3579376 49.6294298 113.18452454 55.60127258 C114.81865295 55.56985168 114.81865295 55.56985168 116.48579407 55.53779602 C120.54474131 55.46515394 124.6036316 55.4193854 128.66304016 55.38154602 C130.41671933 55.36148548 132.17033206 55.33423007 133.92378235 55.29951477 C136.45096772 55.25074956 138.97726545 55.22824866 141.50483704 55.21064758 C142.28319916 55.19000244 143.06156128 55.1693573 143.86351013 55.14808655 C149.09803218 55.14595033 152.03245079 56.13819268 156.18452454 59.60127258 C159.23142624 64.07006175 160.1445829 68.31567654 159.18452454 73.60127258 C156.48907589 78.7033718 153.66309343 81.77508295 148.18452454 83.60127258 C145.3638428 83.70382538 142.5675954 83.74907851 139.74659729 83.7484436 C138.87509277 83.75212029 138.00358825 83.75579698 137.10567451 83.75958508 C134.17394413 83.77063265 131.24224919 83.77446758 128.3105011 83.77827454 C126.21306749 83.78453834 124.115635 83.79118507 122.01820374 83.79818726 C116.31148567 83.8156038 110.60477598 83.82615067 104.89803791 83.83439279 C101.33386146 83.83954125 97.76968761 83.84561703 94.205513 83.85190392 C83.05746177 83.87095729 71.90941717 83.88518847 60.76135278 83.89351588 C47.88631985 83.90329173 35.01145868 83.92961982 22.13648629 83.97001678 C12.18905116 84.00015886 2.24166532 84.01498293 -7.7058146 84.0182969 C-13.64899832 84.02064942 -19.59199857 84.0296364 -25.53513336 84.05475807 C-31.12640951 84.07801048 -36.717381 84.08228329 -42.30869293 84.07199669 C-44.3601635 84.07150054 -46.41164891 84.07784409 -48.46307373 84.09155273 C-51.2656195 84.10923197 -54.06706725 84.10218493 -56.86961365 84.08901978 C-57.67984033 84.09998902 -58.49006702 84.11095827 -59.32484603 84.12225991 C-64.93432087 84.05871913 -68.17802716 82.78530616 -72.81547546 79.60127258 C-76.25238005 75.83176432 -76.32419196 71.94270035 -76.17094421 67.03877258 C-75.53014537 62.6447234 -73.23555889 60.03707252 -70.2051239 56.97309875 C-66.70930646 54.96625382 -63.25853672 55.12137392 -59.33110046 55.08955383 C-58.51550659 55.07160263 -57.69991272 55.05365143 -56.85960388 55.03515625 C-54.26161324 54.98109238 -51.66380588 54.94717076 -49.06547546 54.91377258 C-47.30112706 54.88059597 -45.53680284 54.84610599 -43.77250671 54.81025696 C-39.45362864 54.72536838 -35.13480455 54.65853881 -30.81547546 54.60127258 C-23.84404038 40.76699175 -16.9287465 26.91951024 -10.33183289 12.90180969 C-9.91135681 12.01243713 -9.49088074 11.12306458 -9.05766296 10.20674133 C-8.69527527 9.43483459 -8.33288757 8.66292786 -7.95951843 7.86763 C-7.39321716 6.74578308 -7.39321716 6.74578308 -6.81547546 5.60127258 C-6.47619522 4.74123627 -6.13691498 3.88119995 -5.78735352 2.99510193 C-3.81547546 0.60127258 -3.81547546 0.60127258 0 0 Z " fill="#E0DFE1" transform="translate(262.8154754638672,371.3987274169922)"/>
<path d="M0 0 C16.81034038 3.08189574 31.78207755 11.64983662 41.90625 25.6328125 C49.7083768 37.501302 54.5960928 49.55170399 54.375 63.875 C54.35759766 65.3283374 54.35759766 65.3283374 54.33984375 66.81103516 C53.93123324 84.70276757 46.96826151 100.58653042 34 113 C33.41089844 113.62003906 32.82179688 114.24007812 32.21484375 114.87890625 C19.38908882 127.4791534 1.49068261 131.52325981 -15.85375977 131.42016602 C-23.44751544 131.2170689 -30.01605862 130.12048444 -37 127 C-38.0725 126.525625 -39.145 126.05125 -40.25 125.5625 C-57.68310619 117.01041017 -69.34715953 102.42200066 -75.8125 84.25 C-80.58034684 68.51610542 -78.80245199 50.41746732 -71.8125 35.6875 C-66.95055975 26.62893764 -61.04721574 19.37071246 -53 13 C-50.61370195 14.13061501 -48.83633296 15.14028603 -46.8125 16.875 C-39.38232764 22.48890801 -32.26602275 24.19600554 -23 23 C-15.99418931 21.15740281 -9.66837415 18.0806056 -5.59765625 11.85546875 C-3.41062362 8.03291607 -1.47520669 4.15740067 0 0 Z " fill="#EFEFEF" transform="translate(171,232)"/>
<path d="M0 0 C0.88939872 -0.00538554 1.77879744 -0.01077108 2.69514763 -0.01631981 C5.68151803 -0.03065079 8.66744838 -0.02348295 11.65383911 -0.01637268 C13.79245359 -0.0220736 15.93106502 -0.02903677 18.06967163 -0.03717041 C23.88374549 -0.05514873 29.69766881 -0.05392451 35.51176214 -0.04822803 C40.36276915 -0.0451426 45.21374697 -0.0512215 50.06474984 -0.05726677 C61.50820782 -0.07132605 72.95159118 -0.06973933 84.39505005 -0.05836487 C96.20572993 -0.0468849 108.01618271 -0.06095423 119.82683265 -0.08776134 C129.96197132 -0.1099053 140.09703864 -0.11655857 150.23219979 -0.11068493 C156.2876562 -0.10731072 162.34296706 -0.10976117 168.39840317 -0.12693596 C174.09313431 -0.14238187 179.78752867 -0.13847545 185.4822464 -0.11963081 C187.57282826 -0.11593829 189.66343495 -0.11907264 191.75399399 -0.1295166 C194.60721951 -0.14268272 197.45932298 -0.13121758 200.3125 -0.11352539 C201.1405212 -0.1231304 201.9685424 -0.1327354 202.82165515 -0.14263147 C208.09460425 -0.07532368 211.1035315 0.88805097 215.28323364 4.38768005 C218.33013535 8.85646922 219.24329201 13.10208401 218.28323364 18.38768005 C215.587785 23.48977927 212.76180254 26.56149042 207.28323364 28.38768005 C204.46255191 28.49023285 201.66630451 28.53548598 198.8453064 28.53485107 C197.53804962 28.54036611 197.53804962 28.54036611 196.20438361 28.54599255 C193.27265324 28.55704012 190.34095829 28.56087505 187.40921021 28.56468201 C185.3117766 28.57094581 183.21434411 28.57759254 181.11691284 28.58459473 C175.41019477 28.60201127 169.70348508 28.61255815 163.99674702 28.62080026 C160.43257056 28.62594872 156.86839672 28.6320245 153.30422211 28.63831139 C142.15617087 28.65736476 131.00812627 28.67159594 119.86006188 28.67992336 C106.98502895 28.6896992 94.11016779 28.71602729 81.2351954 28.75642425 C71.28776027 28.78656633 61.34037443 28.8013904 51.39289451 28.80470437 C45.44971079 28.80705689 39.50671054 28.81604388 33.56357574 28.84116554 C27.9722996 28.86441795 22.38132811 28.86869077 16.79001617 28.85840416 C14.73854561 28.85790801 12.6870602 28.86425156 10.63563538 28.87796021 C7.83308961 28.89563945 5.03164185 28.8885924 2.22909546 28.87542725 C1.41886877 28.88639649 0.60864209 28.89736574 -0.22613692 28.90866739 C-5.83561176 28.8451266 -9.07931805 27.57171363 -13.71676636 24.38768005 C-17.15367095 20.61817179 -17.22548285 16.72910783 -17.07223511 11.82518005 C-16.43136734 7.43065823 -14.12845149 4.8348373 -11.12093925 1.75175381 C-7.54212864 -0.27878303 -4.00596282 -0.02892075 0 0 Z " fill="#C8C9CD" transform="translate(203.71676635742188,426.61231994628906)"/>
<path d="M0 0 C8.58 0 17.16 0 26 0 C26 50.16 26 100.32 26 152 C17.42 152 8.84 152 0 152 C-1.78163797 150.21836203 -1.12616096 147.60072085 -1.12698364 145.19189453 C-1.12980347 143.92984192 -1.13262329 142.66778931 -1.13552856 141.36749268 C-1.13358397 139.95593248 -1.13153578 138.54437242 -1.12939453 137.1328125 C-1.13074852 135.65647336 -1.13252844 134.18013455 -1.13470459 132.70379639 C-1.13927919 128.68324716 -1.13748926 124.66272347 -1.1343255 120.64217377 C-1.13180204 116.44390288 -1.1341394 112.24563425 -1.13571167 108.04736328 C-1.13753341 100.99576421 -1.13512695 93.94417561 -1.13037109 86.89257812 C-1.12492847 78.7281695 -1.12669112 70.56378584 -1.1321975 62.39937782 C-1.13672852 55.40237018 -1.13737923 48.40537007 -1.13475883 41.40836143 C-1.13319599 37.22375453 -1.13300247 33.03915938 -1.13629532 28.85455322 C-1.13917387 24.92136714 -1.13719864 20.98821339 -1.13140106 17.05503082 C-1.13007338 15.6073741 -1.13046772 14.15971468 -1.13266373 12.71205902 C-1.13537487 10.74407546 -1.13138073 8.77608598 -1.12698364 6.80810547 C-1.12660662 5.7041745 -1.12622959 4.60024353 -1.12584114 3.46286011 C-1 1 -1 1 0 0 Z " fill="#44A2FF" transform="translate(396,172)"/>
<path d="M0 0 C0.67434586 -0.0038269 1.34869171 -0.00765381 2.04347229 -0.01159668 C3.46820571 -0.01431566 4.89298906 -0.0069551 6.31762695 0.00976562 C8.49348937 0.03114763 10.66603821 0.00998665 12.84179688 -0.015625 C14.22787185 -0.01298106 15.61394476 -0.0078547 17 0 C18.25868896 0.00451172 19.51737793 0.00902344 20.81420898 0.01367188 C24.06640625 0.53125 24.06640625 0.53125 26.47485352 2.15454102 C28.56938722 5.28236517 28.58309552 7.33915544 28.59765625 11.08984375 C28.60539062 12.99926758 28.60539062 12.99926758 28.61328125 14.94726562 C28.60490234 15.60766846 28.59652344 16.26807129 28.58789062 16.94848633 C28.56650219 18.95972848 28.5876837 20.96738524 28.61328125 22.97851562 C28.608125 24.25275391 28.60296875 25.52699219 28.59765625 26.83984375 C28.59314453 28.00314209 28.58863281 29.16644043 28.58398438 30.36499023 C27.9603381 34.18011692 26.82524468 35.8590105 24.06640625 38.53125 C20.15861697 39.15928756 18.06266974 39.16046905 14.69140625 37.03125 C12.40661524 33.5161869 12.34410571 30.6967419 12.06640625 26.53125 C11.63714844 26.94632813 11.20789063 27.36140625 10.765625 27.7890625 C-10.04685991 47.1062815 -35.440084 62.38756068 -59.93359375 76.53125 C-60.85092285 77.06395508 -61.76825195 77.59666016 -62.71337891 78.14550781 C-85.01611821 91.04356814 -107.96442779 102.8726051 -131.62109375 113.09375 C-132.69544678 113.56514404 -133.7697998 114.03653809 -134.87670898 114.5222168 C-135.86872314 114.93898682 -136.8607373 115.35575684 -137.8828125 115.78515625 C-139.17191528 116.33151733 -139.17191528 116.33151733 -140.48706055 116.88891602 C-143.38406119 117.64951962 -145.08707552 117.40305531 -147.93359375 116.53125 C-150.609375 114.75390625 -150.609375 114.75390625 -153.24609375 112.59375 C-154.12910156 111.88347656 -155.01210937 111.17320312 -155.921875 110.44140625 C-156.58574219 109.81105469 -157.24960938 109.18070312 -157.93359375 108.53125 C-157.93359375 107.87125 -157.93359375 107.21125 -157.93359375 106.53125 C-157.16732666 106.22123047 -156.40105957 105.91121094 -155.61157227 105.59179688 C-126.91037696 93.91846235 -98.83004871 80.96329156 -71.93359375 65.53125 C-71.1334082 65.07395508 -70.33322266 64.61666016 -69.50878906 64.14550781 C-48.49505581 52.05133408 -27.98804588 38.5319325 -8.93359375 23.53125 C-8.39879395 23.11069336 -7.86399414 22.69013672 -7.31298828 22.25683594 C-4.50104117 20.03784862 -1.70711005 17.79806621 1.06640625 15.53125 C-0.54234375 15.4075 -0.54234375 15.4075 -2.18359375 15.28125 C-6.26526045 14.46491666 -7.62534562 13.94745723 -9.93359375 10.53125 C-10.41171192 7.25272538 -10.34374301 5.33891727 -8.83959961 2.37695312 C-6.02399622 -0.34956943 -3.86308319 0.01385948 0 0 Z " fill="#F0CB87" transform="translate(368.93359375,119.46875)"/>
<path d="M0 0 C1.07507813 -0.00128906 2.15015625 -0.00257813 3.2578125 -0.00390625 C4.38960938 -0.00003906 5.52140625 0.00382813 6.6875 0.0078125 C7.81929688 0.00394531 8.95109375 0.00007812 10.1171875 -0.00390625 C11.19226563 -0.00261719 12.26734375 -0.00132812 13.375 0 C14.86580078 0.00169189 14.86580078 0.00169189 16.38671875 0.00341797 C18.6875 0.1328125 18.6875 0.1328125 19.6875 1.1328125 C19.78353022 2.7523759 19.80937855 4.37614333 19.80775452 5.99855042 C19.80912918 7.05169434 19.81050385 8.10483826 19.81192017 9.18989563 C19.80832489 10.35514267 19.80472961 11.52038971 19.80102539 12.72094727 C19.80117142 13.94028961 19.80131744 15.15963196 19.8014679 16.41592407 C19.80088893 19.76908761 19.79585968 23.12219024 19.78889394 26.47534299 C19.78265983 29.97606812 19.78205656 33.47679398 19.78086853 36.9775238 C19.77775538 43.61090906 19.76954222 50.24427791 19.75951904 56.87765592 C19.74835739 64.42771457 19.74284732 71.97777399 19.73782361 79.52783883 C19.72735959 95.06284118 19.70901432 110.59782093 19.6875 126.1328125 C11.1075 126.1328125 2.5275 126.1328125 -6.3125 126.1328125 C-6.33504705 109.85210638 -6.35347919 93.57141352 -6.36431217 77.29069614 C-6.36947512 69.73179631 -6.3765178 62.17290685 -6.38793945 54.61401367 C-6.39788632 48.02801584 -6.40435343 41.44202552 -6.40658849 34.85602039 C-6.4078956 31.36668179 -6.41098142 27.87736466 -6.41823006 24.38803291 C-6.42624398 20.49900018 -6.42649114 16.60998872 -6.42602539 12.72094727 C-6.42962067 11.55570023 -6.43321594 10.39045319 -6.43692017 9.18989563 C-6.4355455 8.13675171 -6.43417084 7.08360779 -6.43275452 5.99855042 C-6.43413721 4.61724363 -6.43413721 4.61724363 -6.43554783 3.20803165 C-6.18936469 -0.94388201 -3.5581426 0.0040381 0 0 Z " fill="#6CE75A" transform="translate(350.3125,197.8671875)"/>
<path d="M0 0 C11.01350011 -0.06947901 22.02694816 -0.12280064 33.04062271 -0.15543652 C38.1546019 -0.17109929 43.26843126 -0.19234883 48.38232422 -0.22631836 C53.3165713 -0.25888984 58.25067417 -0.2768484 63.18502045 -0.28463173 C65.06851217 -0.2901792 66.95199592 -0.30101195 68.83542633 -0.31719017 C71.47151307 -0.33893507 74.10700222 -0.34196816 76.74316406 -0.34057617 C77.91381157 -0.35675491 77.91381157 -0.35675491 79.10810852 -0.3732605 C82.29483342 -0.35502545 84.63298544 -0.19063979 87.48504639 1.29081726 C89.99244324 4.11968237 89.53626733 7.41888774 89.4375 11 C89.44458984 11.72445312 89.45167969 12.44890625 89.45898438 13.1953125 C89.42407442 16.10626552 89.32580967 18.43206465 87.859375 20.98828125 C85.13039913 22.47316518 82.89242856 22.28685253 79.8125 22.1875 C78.72582031 22.16042969 77.63914062 22.13335937 76.51953125 22.10546875 C75.27236328 22.05326172 75.27236328 22.05326172 74 22 C73.98582031 22.61746094 73.97164063 23.23492187 73.95703125 23.87109375 C73.48824162 32.19527721 70.94234945 38.53044343 64.8125 44.3125 C58.03187519 49.55871618 50.64199702 51.84482893 42.0859375 51.50390625 C33.1450392 50.04393678 26.18176987 45.25668518 20.55859375 38.30078125 C17.0795888 33.16510727 15.52887025 28.28172998 16 22 C11.52040582 23.14185734 7.85477249 24.43015167 4 27 C3.690625 26.05125 3.38125 25.1025 3.0625 24.125 C2.12605258 21.13919592 2.12605258 21.13919592 1 19 C0.90208977 16.30170926 0.8609375 13.63515539 0.875 10.9375 C0.87113281 10.19177734 0.86726563 9.44605469 0.86328125 8.67773438 C0.87336499 3.12663501 0.87336499 3.12663501 2 2 C1.34 1.34 0.68 0.68 0 0 Z " fill="#97999B" transform="translate(97,205)"/>
<path d="M0 0 C8.58 0 17.16 0 26 0 C27.90841444 1.90841444 27.12675361 4.72944588 27.13552856 7.26905823 C27.13350433 8.17091354 27.1314801 9.07276886 27.12939453 10.00195312 C27.13114685 10.9465892 27.13289917 11.89122528 27.13470459 12.86448669 C27.1391248 16.0034262 27.13618452 19.14230987 27.1328125 22.28125 C27.13348549 24.45218924 27.13445547 26.6231284 27.13571167 28.79406738 C27.13718887 33.35051183 27.13503337 37.90693672 27.13037109 42.46337891 C27.1246738 48.31826586 27.12795268 54.17310698 27.13394356 60.02799225 C27.13754857 64.51280058 27.13641086 68.99759796 27.13381577 73.48240662 C27.13314633 75.64188136 27.1339755 77.80135709 27.13629532 79.96083069 C27.13882086 82.97326308 27.13498264 85.98562013 27.12939453 88.99804688 C27.13141876 89.89990219 27.13344299 90.80175751 27.13552856 91.73094177 C27.11426231 97.88573769 27.11426231 97.88573769 26 99 C17.42 99 8.84 99 0 99 C0 66.33 0 33.66 0 0 Z " fill="#FED550" transform="translate(291,225)"/>
<path d="M0 0 C1.68472778 3.36945556 0.14307317 6.95825653 -0.625 10.51171875 C-0.80731171 11.37991745 -0.98962341 12.24811615 -1.17745972 13.1426239 C-1.77805913 15.99242878 -2.38874908 18.83996233 -3 21.6875 C-3.41586997 23.6472255 -3.83139549 25.60702413 -4.24658203 27.56689453 C-7.68525728 43.74453747 -11.2789567 59.88505701 -15 76 C-15.28391602 77.23137695 -15.56783203 78.46275391 -15.86035156 79.73144531 C-16.57296474 82.82110268 -17.28639745 85.910571 -18 89 C-25.26 89 -32.52 89 -40 89 C-43.10700534 75.65815354 -45.97941924 62.30445447 -48.61206055 48.86132812 C-49.98143123 41.92330076 -51.42080152 35.0090171 -52.97265625 28.109375 C-53.1368103 27.37637177 -53.30096436 26.64336853 -53.47009277 25.88815308 C-54.26944893 22.32443108 -55.07896838 18.76347502 -55.90380859 15.20556641 C-56.1920752 13.92858887 -56.4803418 12.65161133 -56.77734375 11.3359375 C-57.03765381 10.20720215 -57.29796387 9.0784668 -57.56616211 7.91552734 C-57.97597649 5.16144554 -57.92962192 3.58687675 -57 1 C-51.70803277 6.0324157 -47.02049036 11.34191935 -42.453125 17.03515625 C-38.17333066 22.20771023 -33.58046105 27.09419779 -29 32 C-24.42583953 27.53276796 -20.02527472 22.98790517 -15.85546875 18.140625 C-13.72898842 15.68733821 -11.55440925 13.281356 -9.375 10.875 C-6.16150707 7.3154386 -3.03115299 3.71560689 0 0 Z " fill="#FEB701" transform="translate(171,94)"/>
<path d="M0 0 C0.495 1.98 0.495 1.98 1 4 C1.763125 3.9175 2.52625 3.835 3.3125 3.75 C6 4 6 4 7.64453125 5.578125 C9.46582257 8.83230546 9.39859103 11.28834398 9.375 15 C9.38660156 16.8253125 9.38660156 16.8253125 9.3984375 18.6875 C8.7952909 23.70189522 8.7952909 23.70189522 6 26 C0.31503614 26.95426057 -5.20232538 27.12476587 -10.95458984 27.0534668 C-11.81085968 27.04707184 -12.66712952 27.04067688 -13.54934692 27.03408813 C-16.35329434 27.01147566 -19.15707795 26.98081799 -21.9609375 26.94921875 C-23.91769224 26.92997085 -25.87444887 26.91091556 -27.83120728 26.89204407 C-31.91795841 26.85119499 -36.00463459 26.80598081 -40.09130859 26.75805664 C-45.33711053 26.69718483 -50.58293545 26.65040843 -55.82890892 26.60722637 C-59.86260324 26.5719546 -63.89616198 26.52771172 -67.92973709 26.48087502 C-69.86506614 26.45979413 -71.80043259 26.44190244 -73.73582077 26.4272213 C-76.43134375 26.4057467 -79.126431 26.37185038 -81.82177734 26.3347168 C-82.62488342 26.33098557 -83.4279895 26.32725433 -84.25543213 26.32341003 C-89.77165404 26.22834596 -89.77165404 26.22834596 -92 24 C-92.46905236 21.04260513 -92.37034561 18.05294759 -92.375 15.0625 C-92.39949219 14.23814453 -92.42398438 13.41378906 -92.44921875 12.56445312 C-92.45308594 11.77103516 -92.45695312 10.97761719 -92.4609375 10.16015625 C-92.46915527 9.43449463 -92.47737305 8.70883301 -92.48583984 7.96118164 C-92 6 -92 6 -90.50289917 4.39297485 C-86.89831559 2.38686356 -83.47878169 2.65132022 -79.46777344 2.7512207 C-78.60887512 2.76053619 -77.74997681 2.76985168 -76.86505127 2.77944946 C-74.02942259 2.81379225 -71.19464997 2.86969104 -68.359375 2.92578125 C-66.39212866 2.95381699 -64.42486273 2.98050712 -62.45758057 3.00590515 C-57.28207459 3.07634056 -52.10703703 3.16506236 -46.93188477 3.25756836 C-41.65006349 3.34875303 -36.36800394 3.42267809 -31.0859375 3.49804688 C-20.72365171 3.64845323 -10.36177877 3.81817507 0 4 C0 2.68 0 1.36 0 0 Z " fill="#C7C8CC" transform="translate(184,179)"/>
<path d="M0 0 C1.12019531 -0.00128906 2.24039063 -0.00257813 3.39453125 -0.00390625 C4.57402344 -0.00003906 5.75351563 0.00382813 6.96875 0.0078125 C8.73798828 0.00201172 8.73798828 0.00201172 10.54296875 -0.00390625 C12.22326172 -0.00197266 12.22326172 -0.00197266 13.9375 0 C14.97326172 0.00112793 16.00902344 0.00225586 17.07617188 0.00341797 C19.46875 0.1328125 19.46875 0.1328125 20.46875 1.1328125 C20.56835152 3.33606224 20.59674757 5.5425474 20.59814453 7.74804688 C20.59989685 8.43909012 20.60164917 9.13013336 20.60345459 9.84211731 C20.60787254 12.13695757 20.60493533 14.43172139 20.6015625 16.7265625 C20.60223556 18.31457535 20.60320559 19.90258809 20.60446167 21.49060059 C20.60593857 24.823008 20.60378436 28.15538866 20.59912109 31.48779297 C20.5934238 35.7687976 20.59670285 40.04973955 20.60269356 44.33074188 C20.6062994 47.61114986 20.60516048 50.89154287 20.60256577 54.17195129 C20.60189656 55.75088 20.6027247 57.32981004 20.60504532 58.90873718 C20.60757223 61.11172103 20.60373075 63.31460199 20.59814453 65.51757812 C20.59734894 66.77364868 20.59655334 68.02971924 20.59573364 69.32385254 C20.46875 72.1328125 20.46875 72.1328125 19.46875 73.1328125 C17.76102642 73.21995081 16.04976351 73.23981257 14.33984375 73.23046875 C12.78813477 73.22563477 12.78813477 73.22563477 11.20507812 73.22070312 C10.11646484 73.21232422 9.02785156 73.20394531 7.90625 73.1953125 C6.2675293 73.18854492 6.2675293 73.18854492 4.59570312 73.18164062 C1.88666505 73.16981076 -0.82226599 73.15332793 -3.53125 73.1328125 C-3.20640625 71.94365234 -3.20640625 71.94365234 -2.875 70.73046875 C1.59193317 52.01484597 1.0155382 33.13040012 -5.65234375 15.1015625 C-6.56519853 12.01814192 -6.76697682 9.52520374 -6.71875 6.3203125 C-6.71230469 5.36511719 -6.70585937 4.40992188 -6.69921875 3.42578125 C-6.3761986 -0.9838194 -3.86034711 0.00420386 0 0 Z " fill="#FD6675" transform="translate(245.53125,250.8671875)"/>
<path d="M0 0 C18.81 0 37.62 0 57 0 C56.01460762 9.85392379 54.94296537 15.58660004 47.8125 22.3125 C41.03187519 27.55871618 33.64199702 29.84482893 25.0859375 29.50390625 C16.05658262 28.0294926 9.14834042 23.18927575 3.4921875 16.16015625 C-0.38803782 10.54297143 0 7.04759433 0 0 Z " fill="#8A8C8F" transform="translate(114,227)"/>
<path d="M0 0 C2.5625 2.0625 2.5625 2.0625 4 5 C4.0625 8.5625 4.0625 8.5625 3 12 C-1.25705794 15.97997133 -6.3883004 18.84441022 -11.375 21.8125 C-12.2 22.32748047 -13.025 22.84246094 -13.875 23.37304688 C-17.93246413 25.77854347 -20.17288074 27.02189433 -24.984375 26.89453125 C-29.45981721 25.56697132 -29.45981721 25.56697132 -31 23 C-32 19.625 -32 19.625 -32 16 C-28.08232239 11.17271903 -23.00816707 8.28880711 -17.6875 5.1875 C-16.87087891 4.68541016 -16.05425781 4.18332031 -15.21289062 3.66601562 C-9.85251155 0.52667011 -6.22187754 -0.79311846 0 0 Z " fill="#FFD54E" transform="translate(259,32)"/>
<path d="M0 0 C1.9375 1.0625 1.9375 1.0625 3 3 C3.8021148 8.52567976 3.8021148 8.52567976 3 11 C-1.30810525 15.16070507 -6.25604603 18.23839508 -11.375 21.3125 C-12.09171875 21.76689453 -12.8084375 22.22128906 -13.546875 22.68945312 C-18.63896096 25.74562385 -22.06217661 26.64123363 -28 26 C-30.5 24.4375 -30.5 24.4375 -32 22 C-32.5625 18.5625 -32.5625 18.5625 -32 15 C-27.94054692 10.01456169 -22.69196317 7.20598401 -17.125 4.125 C-16.25230469 3.61453125 -15.37960938 3.1040625 -14.48046875 2.578125 C-9.13081089 -0.39837637 -5.96503334 -1.77001643 0 0 Z " fill="#FFD54F" transform="translate(54,151)"/>
<path d="M0 0 C3.65890979 1.59937561 6.95368165 3.66335202 10.3125 5.8125 C11.20517578 6.35970703 12.09785156 6.90691406 13.01757812 7.47070312 C20.86166207 12.34005546 20.86166207 12.34005546 23 15 C23.39309578 18.09562931 23.62338668 20.04336605 23 23 C20.9375 25.5625 20.9375 25.5625 18 27 C11.09675585 26.90138223 6.01589661 23.56009365 0.1875 20.125 C-0.76576172 19.58230469 -1.71902344 19.03960937 -2.70117188 18.48046875 C-9.72930304 14.40604544 -9.72930304 14.40604544 -12 11 C-12.41857482 7.16306413 -12.54644269 4.88796936 -10.5 1.5625 C-6.99390684 -0.62880822 -3.97198496 -0.70730005 0 0 Z " fill="#FFD54E" transform="translate(34,32)"/>
<path d="M0 0 C1.01151878 -0.00786278 1.01151878 -0.00786278 2.04347229 -0.0158844 C3.46817652 -0.02230064 4.89293376 -0.02097264 6.31762695 -0.01245117 C8.49331447 -0.00394765 10.66636928 -0.03268967 12.84179688 -0.06445312 C14.2278638 -0.06606552 15.61393536 -0.06548687 17 -0.0625 C18.25868896 -0.06435303 19.51737793 -0.06620605 20.81420898 -0.06811523 C24.61936232 0.51889701 25.80478482 1.37097416 28.06640625 4.43359375 C28.69969036 8.15413791 28.42224962 9.84121277 26.47460938 13.08349609 C23.26534221 16.21532961 21.46848107 16.07769146 17.03515625 16.09765625 C16.36222534 16.10243988 15.68929443 16.10722351 14.99597168 16.1121521 C13.57720595 16.11554539 12.15836144 16.10638225 10.73974609 16.08544922 C8.57211452 16.05866429 6.40965869 16.08520438 4.2421875 16.1171875 C2.86066569 16.11388329 1.4791471 16.10747679 0.09765625 16.09765625 C-1.78083008 16.08919678 -1.78083008 16.08919678 -3.69726562 16.08056641 C-6.93359375 15.43359375 -6.93359375 15.43359375 -9.37695312 13.11865234 C-10.93359375 10.43359375 -10.93359375 10.43359375 -10.87109375 6.80859375 C-9.07519204 0.34334758 -6.46657651 0.0501285 0 0 Z " fill="#FFD54E" transform="translate(14.93359375,96.56640625)"/>
<path d="M0 0 C1.91329102 -0.04253906 1.91329102 -0.04253906 3.86523438 -0.0859375 C14.29622721 -0.10781688 14.29622721 -0.10781688 17.4375 2.8046875 C19.0625 5.5 19.0625 5.5 19.125 9.125 C17.93622384 12.90111252 17.41553372 13.60265303 14.0625 15.5 C9.44124642 16.15892035 4.78820838 16.00939689 0.125 16 C-1.15052734 16.02835938 -2.42605469 16.05671875 -3.74023438 16.0859375 C-14.17122721 16.10781688 -14.17122721 16.10781688 -17.3125 13.1953125 C-18.9375 10.5 -18.9375 10.5 -19 6.875 C-16.24051495 -1.8904231 -7.69650669 -0.01550933 0 0 Z " fill="#FED551" transform="translate(260.9375,96.5)"/>
<path d="M0 0 C3.61177088 1.6333791 6.90575746 3.69301295 10.25 5.8125 C11.1471875 6.35970703 12.044375 6.90691406 12.96875 7.47070312 C20.78885346 12.29973408 20.78885346 12.29973408 23 15 C23.5 18.4375 23.5 18.4375 23 22 C20.9375 24.5 20.9375 24.5 18 26 C11.17574616 25.91228466 6.36511714 22.65131639 0.6875 19.125 C-0.21806641 18.58230469 -1.12363281 18.03960937 -2.05664062 17.48046875 C-8.72464129 13.41303807 -8.72464129 13.41303807 -11 10 C-11.45667063 6.4227467 -11.43777431 4.66541695 -9.4375 1.625 C-6.21267996 -0.52488003 -3.7160632 -0.73592204 0 0 Z " fill="#FDD552" transform="translate(239,151)"/>
<path d="M0 0 C1.98 0 3.96 0 6 0 C4.3545622 1.68762851 2.68711423 3.3540349 1 5 C0.67 5 0.34 5 0 5 C0 3.35 0 1.7 0 0 Z " fill="#BDC3CC" transform="translate(101,227)"/>
</svg>
